<svg xmlns="http://www.w3.org/2000/svg" width="403" height="625" viewBox="0 0 403 625"><defs><style>.cls-1{font-size:20.04px;font-family:RoundedMplus1c-Regular, "Rounded Mplus 1c";}.cls-2,.cls-3{stroke:#000;stroke-miterlimit:10;}.cls-2{stroke-width:2px;fill-rule:evenodd;}.cls-3{fill:none;stroke-linecap:round;stroke-width:4px;}</style></defs><g id="Layer_2" data-name="Layer 2"><text class="cls-1" transform="matrix(0.06, -1, 1, 0.06, 226.26, 89.57)">l</text><text class="cls-1" transform="translate(226.58 83.96) rotate(-81.72)">i</text><text class="cls-1" transform="translate(227.29 78.06) rotate(-74.81)">k</text><text class="cls-1" transform="translate(230.08 68.26) rotate(-68.28)"> </text><text class="cls-1" transform="translate(231.81 63.43) rotate(-61.56)">o</text><text class="cls-1" transform="translate(236.77 54.22) rotate(-53.21)">v</text><text class="cls-1" transform="matrix(0.7, -0.71, 0.71, 0.7, 242.63, 46.32)">e</text><text class="cls-1" transform="matrix(0.79, -0.61, 0.61, 0.79, 249.8, 39.12)">r</text><text class="cls-1" transform="matrix(0.84, -0.54, 0.54, 0.84, 256.8, 33.78)"> </text><text class="cls-1" transform="translate(260.89 30.75) rotate(-24.47)">m</text><text class="cls-1" transform="translate(274.99 24.67) rotate(-16.34)">i</text><text class="cls-1" transform="translate(280.64 22.85) rotate(-9.9)">n</text><text class="cls-1" transform="translate(291.58 21.09) rotate(-3.81)"> </text><text class="cls-1" transform="translate(296.73 20.57) rotate(2.23)">p</text><text class="cls-1" transform="translate(307.88 21.06) rotate(9.64)">r</text><text class="cls-1" transform="translate(316.09 22.34) rotate(16.74)">o</text><text class="cls-1" transform="translate(326.08 25.43) rotate(23.22)">j</text><text class="cls-1" transform="translate(332.42 28.02) rotate(29.8)">e</text><text class="cls-1" transform="matrix(0.79, 0.61, -0.61, 0.79, 341.25, 33.05)">k</text><text class="cls-1" transform="matrix(0.71, 0.71, -0.71, 0.71, 348.89, 38.91)">t</text><text class="cls-1" transform="matrix(0.6, 0.8, -0.8, 0.6, 355.65, 45.62)">e</text><text class="cls-1" transform="translate(361.74 53.74) rotate(60.74)">r</text><text class="cls-1" transform="translate(365.96 61.44) rotate(66.6)"> </text><text class="cls-1" transform="translate(368.13 66.09) rotate(72.98)">f</text><text class="cls-1" transform="matrix(0.17, 0.99, -0.99, 0.17, 370.87, 74.94)">r</text><text class="cls-1" transform="translate(372.25 83.61) rotate(86.37)"> </text><text class="cls-1" transform="translate(77.98 461.9) rotate(79.82)">m</text><text class="cls-1" transform="translate(81.46 479.07) rotate(68.81)">u</text><text class="cls-1" transform="translate(86.16 490.56) rotate(61.56)">l</text><text class="cls-1" transform="translate(89.62 497.05) rotate(54.71)">t</text><text class="cls-1" transform="matrix(0.67, 0.74, -0.74, 0.67, 96.26, 506.1)">i</text><text class="cls-1" transform="matrix(0.76, 0.66, -0.66, 0.76, 101.18, 511.56)">-</text><text class="cls-1" transform="translate(109.53 519) rotate(29.74)">m</text><text class="cls-1" transform="translate(125.14 527.35) rotate(17.53)">e</text><text class="cls-1" transform="matrix(0.99, 0.12, -0.12, 0.99, 137.04, 530.98)">d</text><text class="cls-1" transform="translate(149.94 532.23) rotate(-1.48)">i</text><text class="cls-1" transform="translate(157.45 532.1) rotate(-9.36)">e</text><text class="cls-1" transform="translate(169.7 529.94) rotate(-20)">d</text><text class="cls-1" transform="translate(182.08 525.22) rotate(-30.25)">e</text><text class="cls-1" transform="translate(192.38 519.05) rotate(-39.44)">s</text><text class="cls-1" transform="matrix(0.69, -0.73, 0.73, 0.69, 200.85, 511.83)">i</text><text class="cls-1" transform="matrix(0.59, -0.81, 0.81, 0.59, 206.06, 506.46)">g</text><text class="cls-1" transform="translate(213.5 495.98) rotate(-63.52)">n</text><text class="cls-1" transform="translate(218.83 484.72) rotate(-70.46)"> </text><text class="cls-1" transform="translate(221.14 478.56) rotate(-77.4)">p</text><text class="cls-1" transform="translate(223.65 466.18) rotate(-84.25)"> </text><text class="cls-1" transform="translate(372.55 82.91) rotate(90)">a<tspan x="10.8" y="0"> </tspan><tspan x="16.34" y="0">f</tspan><tspan x="26.62" y="0">ø</tspan><tspan x="38.05" y="0">r</tspan><tspan x="46.76" y="0">s</tspan><tspan x="56.42" y="0">t</tspan><tspan x="66.38" y="0">e</tspan><tspan x="77" y="0"> </tspan><tspan x="82.5" y="0">s</tspan><tspan x="92.58" y="0">e</tspan><tspan x="103.18" y="0">m</tspan><tspan x="119.01" y="0">e</tspan><tspan x="129.6" y="0">s</tspan><tspan x="139.27" y="0">t</tspan><tspan x="149.23" y="0">e</tspan><tspan x="159.82" y="0">r</tspan><tspan x="166.74" y="0">.</tspan><tspan x="172.54" y="0"> </tspan><tspan x="178.05" y="0">D</tspan><tspan x="191.34" y="0">u</tspan><tspan x="202.66" y="0"> </tspan><tspan x="208.17" y="0">k</tspan><tspan x="218.26" y="0">a</tspan><tspan x="229.05" y="0">n</tspan><tspan x="240.47" y="0"> </tspan><tspan x="246" y="0">l</tspan><tspan x="252.31" y="0">æ</tspan><tspan x="269.71" y="0">s</tspan><tspan x="279.76" y="0">e</tspan><tspan x="290.37" y="0"> </tspan><tspan x="295.89" y="0">m</tspan><tspan x="311.71" y="0">e</tspan><tspan x="322.31" y="0">r</tspan><tspan x="331.04" y="0">e</tspan><tspan x="341.63" y="0"> </tspan><tspan x="347.15" y="0">o</tspan><tspan x="358.39" y="0">m</tspan><tspan x="374.23" y="0"> </tspan><tspan x="379.74" y="0">m</tspan><tspan x="395.57" y="0">i</tspan><tspan x="401.89" y="0">g</tspan><tspan x="413.26" y="0"> </tspan><tspan x="418.76" y="0">n</tspan><tspan x="430.18" y="0">e</tspan><tspan x="441" y="0">d</tspan><tspan x="452.69" y="0">e</tspan><tspan x="463.27" y="0">n</tspan><tspan x="474.31" y="0">f</tspan><tspan x="483.79" y="0">o</tspan><tspan x="495.04" y="0">r</tspan><tspan x="504.14" y="0"> </tspan></text><text class="cls-1" transform="translate(224.33 464.67) rotate(-90)">å<tspan x="12.55" y="0"> </tspan><tspan x="19.8" y="0">K</tspan><tspan x="33.38" y="0">E</tspan><tspan x="46.99" y="0">A</tspan><tspan x="61.66" y="0">.</tspan><tspan x="69.18" y="0"> </tspan><tspan x="76.43" y="0">I</tspan><tspan x="84.6" y="0"> </tspan><tspan x="91.86" y="0">m</tspan><tspan x="109.46" y="0">e</tspan><tspan x="121.8" y="0">n</tspan><tspan x="134.95" y="0">u</tspan><tspan x="148.02" y="0">e</tspan><tspan x="160.37" y="0">n</tspan><tspan x="173.56" y="0"> </tspan><tspan x="180.8" y="0">fi</tspan><tspan x="195.16" y="0">n</tspan><tspan x="208.33" y="0">d</tspan><tspan x="221.76" y="0">e</tspan><tspan x="234.1" y="0">r</tspan><tspan x="244.96" y="0"> </tspan><tspan x="252.2" y="0">d</tspan><tspan x="265.65" y="0">u</tspan><tspan x="278.71" y="0"> </tspan><tspan x="285.97" y="0">e</tspan><tspan x="298.1" y="0">t</tspan><tspan x="310.02" y="0"> </tspan><tspan x="317.27" y="0">o</tspan><tspan x="329.97" y="0">v</tspan><tspan x="341.98" y="0">e</tspan><tspan x="354.33" y="0">r</tspan><tspan x="365.2" y="0">b</tspan><tspan x="378.63" y="0"> </tspan></text><text class="cls-1" transform="translate(78.1 38.74) rotate(90)">m<tspan x="17.98" y="0">i</tspan><tspan x="26.46" y="0">t</tspan><tspan x="38.74" y="0"> </tspan><tspan x="46.42" y="0">n</tspan><tspan x="59.98" y="0">a</tspan><tspan x="72.52" y="0">v</tspan><tspan x="85.26" y="0">n</tspan><tspan x="98.82" y="0"> </tspan><tspan x="106.47" y="0">e</tspan><tspan x="119.21" y="0">r</tspan><tspan x="130.49" y="0"> </tspan><tspan x="138.13" y="0">A</tspan><tspan x="153.18" y="0">n</tspan><tspan x="166.75" y="0">d</tspan><tspan x="180.58" y="0">r</tspan><tspan x="191.45" y="0">e</tspan><tspan x="204.19" y="0">a</tspan><tspan x="216.95" y="0">s</tspan><tspan x="229.15" y="0"> </tspan><tspan x="236.81" y="0">o</tspan><tspan x="250.39" y="0">g</tspan><tspan x="263.93" y="0"> </tspan><tspan x="271.57" y="0">j</tspan><tspan x="280.93" y="0">e</tspan><tspan x="293.87" y="0">g</tspan><tspan x="307.42" y="0"> </tspan><tspan x="315.08" y="0">s</tspan><tspan x="326.89" y="0">t</tspan><tspan x="339.18" y="0">u</tspan><tspan x="352.65" y="0">d</tspan><tspan x="366.49" y="0">e</tspan><tspan x="379.23" y="0">r</tspan><tspan x="390.08" y="0">e</tspan><tspan x="402.83" y="0">r</tspan><tspan x="414.1" y="0"> </tspan></text><path class="cls-2" d="M389.49,596.74l-11.65,14.61-11.63-14.61-.81.63L377.84,613l12.43-15.64Z"/><path class="cls-3" d="M55.18,56c0-5.65-5.11-10.23-11.42-10.23S32.33,50.36,32.33,56"/><path class="cls-3" d="M55.18,128.11c0,5.76-5.11,10.44-11.42,10.44s-11.43-4.68-11.43-10.44"/><line class="cls-3" x1="3.04" y1="45.46" x2="3.04" y2="138.78"/><line class="cls-3" x1="25.9" y1="45.46" x2="25.9" y2="138.78"/><line class="cls-3" x1="32.33" y1="56.01" x2="32.33" y2="127.6"/><line class="cls-3" x1="33" y1="92" x2="50.34" y2="92"/><line class="cls-3" x1="4.65" y1="91.68" x2="23.82" y2="91.68"/><path class="cls-3" d="M62,175c0,5.65-4.85,10.23-10.83,10.23S40.3,180.65,40.3,175"/><line class="cls-3" x1="61.96" y1="175" x2="61.96" y2="92"/></g></svg>