<svg id="Layer_1" data-name="Layer 1" xmlns="http://www.w3.org/2000/svg" width="31" height="20" viewBox="0 0 31 20"><defs><style>.cls-1{fill:none;stroke:#000;stroke-linecap:round;stroke-miterlimit:10;}</style></defs><path id="_4" data-name="4" class="cls-1" d="M25.4,16a1.5,1.5,0,1,0,0-3"/><path id="_3" data-name="3" class="cls-1" d="M5,10a1.62,1.62,0,0,0-1.71,1.5A1.62,1.62,0,0,0,5,13"/><path id="_2" data-name="2" class="cls-1" d="M25.4,10A1.55,1.55,0,0,0,27,8.5,1.55,1.55,0,0,0,25.4,7"/><path id="_1" data-name="1" class="cls-1" d="M5,4A1.62,1.62,0,0,0,3.29,5.5,1.62,1.62,0,0,0,5,7"/><line id="bund" class="cls-1" x1="3.5" y1="16" x2="25.5" y2="16"/><line id="bund-1" class="cls-1" x1="5" y1="13" x2="25.5" y2="13"/><line id="midte" class="cls-1" x1="5" y1="10" x2="25.5" y2="10"/><line id="top-1" class="cls-1" x1="5" y1="7" x2="25.5" y2="7"/><line id="top" class="cls-1" x1="5" y1="4" x2="27" y2="4"/></svg>