<svg xmlns="http://www.w3.org/2000/svg" width="164" height="108" viewBox="0 0 164 108"><defs><style>.cls-1{fill:none;stroke:#000;stroke-linecap:round;stroke-miterlimit:10;stroke-width:4px;}</style></defs><g id="Layer_2" data-name="Layer 2"><path class="cls-1" d="M24,6.06C18.63,3,11.48,5.31,8,11.3S6.11,24.65,11.46,27.75"/><path class="cls-1" d="M151,79.06c6.72,3.88,9.36,11.88,5.9,17.87s-11.71,7.69-18.43,3.82"/><line class="cls-1" x1="151" y1="79" x2="23.99" y2="6.06"/><line class="cls-1" x1="139" y1="101" x2="11.46" y2="27.75"/><path class="cls-1" d="M153.39,28.09c5.44-2.95,7.17-10.27,3.87-16.35s-10.38-8.61-15.82-5.66"/><path class="cls-1" d="M24.78,98.21C18,101.91,9.76,100,6.46,93.9S6,79.9,12.83,76.2"/><line class="cls-1" x1="24.82" y1="98.25" x2="153.39" y2="28.09"/><line class="cls-1" x1="12.34" y1="76.52" x2="141.44" y2="6.08"/></g></svg>