<svg xmlns="http://www.w3.org/2000/svg" width="110.54" height="46.78" viewBox="0 0 110.54 46.78"><defs><style>.cls-1,.cls-2,.cls-3{fill:none;stroke:#000;stroke-miterlimit:10;}.cls-1{stroke-width:2px;}.cls-2,.cls-3{stroke-width:3px;}.cls-3{stroke-linecap:round;}</style></defs><g id="Layer_4" data-name="Layer 4"><rect class="cls-1" x="22.77" y="4.73" width="81.5" height="35.11"/><line class="cls-1" x1="22.77" y1="39.85" x2="104.27" y2="4.73"/><line class="cls-1" x1="22.77" y1="4.73" x2="104.27" y2="39.85"/><rect x="102.53" y="38.11" width="3.47" height="3.47"/><rect x="61.78" y="38.11" width="3.47" height="3.47"/><rect x="21.47" y="38.11" width="3.47" height="3.47"/><rect x="21.03" y="20.34" width="3.47" height="3.47"/><rect x="102.53" y="20.34" width="3.47" height="3.47"/><rect x="21.03" y="3" width="3.47" height="3.47"/><rect x="61.78" y="3" width="3.47" height="3.47"/><rect x="102.53" y="3" width="3.47" height="3.47"/></g><g id="Layer_8" data-name="Layer 8"><path class="cls-2" d="M5.75,9.13a5.32,5.32,0,0,1,5.43-5.2,5.32,5.32,0,0,1,5.43,5.2"/><path class="cls-2" d="M5.75,15.63c0,3.43,2.43,6.2,5.43,6.2s5.43-2.77,5.43-6.2"/><line class="cls-2" x1="16.61" y1="9.13" x2="16.61" y2="15.76"/><line class="cls-3" x1="5.75" y1="9.13" x2="5.75" y2="38.11"/></g></svg>