<svg id="Layer_1" data-name="Layer 1" xmlns="http://www.w3.org/2000/svg" width="585" height="673" viewBox="0 0 585 673"><defs><style>.cls-1{fill:#9bc4a1;}</style></defs><path class="cls-1" d="M225.3,322.68c-1.16-2.51-.16-5.49,1.44-7.57a25.57,25.57,0,0,1,6.54-5.34c4.82-3.15,10-7.37,15.95-7.82,1.91-.15,1.93-3.15,0-3-7.07.54-13.15,5.32-18.84,9.13-2.68,1.8-5.39,3.84-7,6.69a10.21,10.21,0,0,0-.66,9.43c.8,1.75,3.39.23,2.59-1.52Z"/><path class="cls-1" d="M214.42,344.61a18,18,0,0,1,3.45-15,15.61,15.61,0,0,1,6.67-4.83c3-1.14,6.15-1.84,9-3.38,5.25-2.84,9.29-7.37,12.86-12.06,1.81-2.4,3.47-4.91,5.26-7.33s3.9-4.81,6.85-5.67c3.6-1.06,7.46-.33,11.08-1.43a17.51,17.51,0,0,0,8.36-5.54c1.22-1.47-.89-3.61-2.12-2.12a14.76,14.76,0,0,1-7.8,5c-3.38.83-6.95.23-10.32,1.22-6.18,1.81-9.41,8.28-13,13.11s-7.64,9.61-13.06,12.42c-3,1.57-6.44,2.16-9.54,3.55a18,18,0,0,0-6.53,5.09,21.1,21.1,0,0,0-4.11,17.74c.43,1.89,3.32,1.09,2.89-.79Z"/><path class="cls-1" d="M210.24,340.64a22.32,22.32,0,0,1-1.36,2.88c-.22.39-.45.78-.7,1.15-.39.6-.42.71-1,.29a14.15,14.15,0,0,1-3.71-4.43A28.1,28.1,0,0,1,199.92,330a39.37,39.37,0,0,1,.23-11.16,51.49,51.49,0,0,1,1.23-5.61c.47-1.7.89-3.93,2-5.32a6.44,6.44,0,0,1,2.27-1.45,26.22,26.22,0,0,0,2.64-1.48,23.92,23.92,0,0,0,4.32-3.57c2.67-2.81,4.24-6.69,7.65-8.73s7.73-3.14,11.67-3.87a47.57,47.57,0,0,1,12.83-.57c4.88.43,9.58,2,14.48,2.3s9.89-.26,14.66,1.22c1.85.57,2.64-2.32.8-2.89-4.73-1.46-9.64-1.07-14.51-1.28s-9.63-1.73-14.52-2.26a50.42,50.42,0,0,0-14.09.51c-4.44.77-9.34,2-13.19,4.47S213,296.94,209.8,300a21.16,21.16,0,0,1-5.27,3.68c-2,1-3.58,2-4.5,4.13A45.33,45.33,0,0,0,197,320.24a39.72,39.72,0,0,0,.41,12.5,27.3,27.3,0,0,0,6,12.78c1.37,1.53,3.75,3.77,5.9,2.4a8,8,0,0,0,2.2-2.88,27.92,27.92,0,0,0,1.66-3.6c.69-1.81-2.21-2.59-2.89-.8Z"/><path class="cls-1" d="M270.81,295.26c-6.13,9.27-10.06,19.72-15.54,29.35-5,8.71-12,19-22.74,20.35-6.16.78-12.57-.38-18.67-1.22a1.54,1.54,0,0,0-1.84,1,1.52,1.52,0,0,0,1,1.85c5.75.8,11.67,1.81,17.5,1.5a23.92,23.92,0,0,0,15-6.09c8.4-7.39,13.49-17.7,18.28-27.6a151.71,151.71,0,0,1,9.55-17.66c1.07-1.62-1.53-3.12-2.59-1.52Z"/><path class="cls-1" d="M252.08,359.36a56.16,56.16,0,0,1,32.67-25.06,53.27,53.27,0,0,1,11.69-2c1.92-.11,1.93-3.11,0-3a59.3,59.3,0,0,0-39.35,18.44,57.64,57.64,0,0,0-7.6,10.11,1.5,1.5,0,0,0,2.59,1.51Z"/><path class="cls-1" d="M144.74,215.65c2.45,1.85,3.64,5.2,4.95,7.87,1.51,3.07,3,6.17,4.36,9.32,2.73,6.35,4.93,13.06,5.5,20,.53,6.43.14,13.4,3.85,19a14.25,14.25,0,0,0,2.85,3.2c1.19,1,2.6,1.67,3.74,2.7,2.21,2,3.13,5,4.43,7.57a19.16,19.16,0,0,0,6.21,7.19,16.44,16.44,0,0,0,4.5,2.23,7.6,7.6,0,0,0,2.41.34,5.7,5.7,0,0,0,1.17-.18,6.52,6.52,0,0,0,.73-.29c.56-.2.46-.28-.28-.23l-.75-1.3,0,.18c.16,1.91,3.16,1.93,3,0a1.87,1.87,0,0,0-2.56-1.67,4.37,4.37,0,0,1-2.14.45,8.15,8.15,0,0,1-2.27-.78,15.55,15.55,0,0,1-6.52-5.77c-1.57-2.51-2.39-5.42-4.1-7.85a12.74,12.74,0,0,0-3-3,22.86,22.86,0,0,1-3.88-3c-4.61-5.14-3.86-12.85-4.44-19.22a67.77,67.77,0,0,0-5.45-20c-1.53-3.64-3.24-7.19-5-10.73-1.55-3.14-3-6.36-5.82-8.53-1.54-1.17-3,1.43-1.52,2.59Z"/><path class="cls-1" d="M199,261.28a2.23,2.23,0,0,1-1.22-4,7.32,7.32,0,0,1,2.83-1.11c1.24-.3,2.5-.57,3.76-.8a18,18,0,0,1,7.6-.07c.15,0,1.7.65,1.75.61l-.14-1.07a1.57,1.57,0,0,1-.3.12,6.05,6.05,0,0,0-1,.33,18.34,18.34,0,0,1-4.22.76c-1.92.12-1.93,3.12,0,3a22.15,22.15,0,0,0,4.85-.81c1.35-.4,3.08-.87,3.47-2.43.8-3.2-4.82-3.77-6.87-3.86a34.44,34.44,0,0,0-9.18,1.2c-2.61.6-5.43,1.65-6.27,4.48a5.26,5.26,0,0,0,4.93,6.67c1.93.09,1.93-2.91,0-3Z"/><path class="cls-1" d="M220.49,262.07c5.46-2.26,9.52-8.07,10.2-13.93.82-7.12-5.93-11.4-11.49-13.95-1.74-.81-3.27,1.78-1.51,2.59,4.36,2,10.53,5.16,10.05,10.9a15.71,15.71,0,0,1-2.71,6.84,12.1,12.1,0,0,1-5.34,4.65c-1.76.73-1,3.63.8,2.9Z"/><path class="cls-1" d="M196.18,237A23,23,0,0,1,203,235.3c2.53-.19,5.05,0,7.55-.44a1.51,1.51,0,0,0,1.05-1.84,1.53,1.53,0,0,0-1.84-1.05c-2.4.45-4.87.14-7.28.38a25.58,25.58,0,0,0-7.11,1.72,1.54,1.54,0,0,0-1,1.85,1.5,1.5,0,0,0,1.84,1Z"/><path class="cls-1" d="M180.44,276.74a4.06,4.06,0,0,1-.44-1.94,1.65,1.65,0,0,1,.56-1.12,2.36,2.36,0,0,1,1.28-.29,8,8,0,0,1,2.13.19c2.9.68,3.93,3.66,4.79,6.23a1.54,1.54,0,0,0,1.85,1.05,1.52,1.52,0,0,0,1-1.85,18.21,18.21,0,0,0-2.71-5.63,8,8,0,0,0-5.4-2.9c-2-.24-4.25-.11-5.58,1.6s-1.05,4.2-.12,6.18a1.5,1.5,0,0,0,2.59-1.52Z"/><path class="cls-1" d="M197.63,258.75a10.32,10.32,0,0,1,4.64,8.36c.2,3.19-.11,7.5-2.91,9.54a9.82,9.82,0,0,1-9.08,1.37c-3.07-1.24-4.76-4.54-7.54-6.25-1.65-1-3.16,1.58-1.51,2.59,2.59,1.59,4.13,4.43,6.83,5.91a12,12,0,0,0,9.34.66c2.94-1,5.67-2.84,6.79-5.82a19.64,19.64,0,0,0,.74-10.55,12.83,12.83,0,0,0-5.79-8.4,1.5,1.5,0,0,0-1.51,2.59Z"/><path class="cls-1" d="M203.81,256.25c2.84,3.08,3.49,7.47,3.37,11.51-.13,4.45-1.41,9-4.56,12.31s-7.62,4.09-12.11,4.15c-2.41,0-4.21-1.15-6-2.6a16.15,16.15,0,0,1-4.26-4.83c-.92-1.69-3.51-.18-2.59,1.52a20,20,0,0,0,8.76,8.11,12.05,12.05,0,0,0,6.13.69,23.3,23.3,0,0,0,6.72-1.22c7.9-3.06,11.15-11.74,11-19.67-.11-4.38-1.22-8.8-4.26-12.09-1.31-1.42-3.43.7-2.12,2.12Z"/><path class="cls-1" d="M165.83,180.8a39.37,39.37,0,0,1-13-9.24c-1.31-1.42-3.43.71-2.12,2.12a41.26,41.26,0,0,0,13.63,9.71,1.54,1.54,0,0,0,2.05-.53,1.52,1.52,0,0,0-.54-2.06Z"/><path class="cls-1" d="M166.81,176.77a23.92,23.92,0,0,1-9.22-10.66,1.52,1.52,0,0,0-2.05-.54,1.54,1.54,0,0,0-.54,2.05,26.66,26.66,0,0,0,10.3,11.74,1.5,1.5,0,1,0,1.51-2.59Z"/><path class="cls-1" d="M167.65,174c-1.17-1.17-2.4-2.3-3.5-3.54a8.46,8.46,0,0,1-2-4.28,42.28,42.28,0,0,1-.44-10.36c.13-1.92-2.88-1.92-3,0a43,43,0,0,0,.62,11.5c.78,3.79,3.58,6.19,6.21,8.8,1.37,1.36,3.5-.76,2.12-2.12Z"/><path class="cls-1" d="M168.47,173.27c-2.15-6.43-4.53-13.33-3.32-20.2a16.79,16.79,0,0,1,3.9-8.36,67.92,67.92,0,0,1,7.1-6.23c4.93-4.17,8.51-9.64,13.35-13.91s10.86-6.6,17.05-7.84a65.83,65.83,0,0,1,11.71-1.16c2.11,0,4.22,0,6.33,0l2.93.09,1.46,0,1,0c.54,0,.65,0,.34,0l-.69-.9,0,.21.16-1.16-.1.19.9-.69-.18,0c-1.9.35-1.1,3.24.79,2.89a1.77,1.77,0,0,0,.46-3.26,5.82,5.82,0,0,0-2.69-.38l-3.17-.1a119.51,119.51,0,0,0-12.41.19c-7.27.57-14.62,2.21-21,6S182,128.48,177,133.63c-2.49,2.53-5.39,4.57-8,7a20.73,20.73,0,0,0-5.85,8.48c-2.92,8.29-.18,17.06,2.48,25,.61,1.82,3.51,1,2.89-.8Z"/><path class="cls-1" d="M170.27,173.05a93,93,0,0,1-.59-13.14c0-1.93-3-1.93-3,0a93,93,0,0,0,.59,13.14,1.54,1.54,0,0,0,1.5,1.5,1.51,1.51,0,0,0,1.5-1.5Z"/><path class="cls-1" d="M170.15,173.34c2.36-4.93,6.15-8.83,10-12.63a120.09,120.09,0,0,0,11.41-12.87c6.81-9,12.8-18.93,21.87-25.91a33.22,33.22,0,0,1,15.91-7c1.89-.24,1.92-3.24,0-3-11.06,1.37-20.15,8.52-27.15,16.8-4,4.7-7.45,9.77-11.07,14.73a113.85,113.85,0,0,1-11.64,13.73c-4.48,4.45-9.14,8.91-11.91,14.68-.83,1.73,1.75,3.25,2.59,1.51Z"/><path class="cls-1" d="M133.91,211.53c4.27-.48,8.44,1.81,11.69,4.38a1.54,1.54,0,0,0,2.12,0,1.51,1.51,0,0,0,0-2.12c-3.83-3-8.74-5.83-13.81-5.26a1.54,1.54,0,0,0-1.5,1.5,1.51,1.51,0,0,0,1.5,1.5Z"/><path class="cls-1" d="M135,212.56c-1.67-2.43-4.25-3.81-6.82-5.11a18.1,18.1,0,0,0-4.5-1.63,30.52,30.52,0,0,0-5-.48c-1.93-.06-1.93,2.94,0,3a18.28,18.28,0,0,1,8,1.7c2,1,4.41,2.09,5.74,4a1.54,1.54,0,0,0,2.06.54,1.5,1.5,0,0,0,.53-2.05Z"/><path class="cls-1" d="M132.3,214.57A21.35,21.35,0,0,0,114,211a1.5,1.5,0,0,0,.8,2.89,18.51,18.51,0,0,1,16,3.26,1.51,1.51,0,0,0,2.05-.54,1.53,1.53,0,0,0-.54-2.05Z"/><path class="cls-1" d="M130.52,215.55a63.6,63.6,0,0,0-19.86-.28,11,11,0,0,0-7.14,3.92A73.26,73.26,0,0,0,98.46,227c-1,1.65,1.58,3.16,2.59,1.51,1.42-2.3,2.73-4.74,4.35-6.91a8.85,8.85,0,0,1,6.48-3.53,61.31,61.31,0,0,1,17.84.34c1.89.31,2.7-2.58.8-2.89Z"/><path class="cls-1" d="M86.65,249.2,101,228.66c1.1-1.58-1.49-3.08-2.59-1.51q-7.17,10.28-14.35,20.53c-1.1,1.59,1.5,3.09,2.6,1.52Z"/><path class="cls-1" d="M89,256.94a105,105,0,0,1,8.55-9.22c3-2.81,6.6-4.39,10-6.66,6.06-4.1,10.86-9.65,15.85-14.92a80.53,80.53,0,0,1,9-8.41c1.52-1.18-.62-3.29-2.13-2.12-5.79,4.49-10.46,10.17-15.58,15.37a59,59,0,0,1-8.17,7.15c-3.25,2.26-6.88,3.81-9.9,6.42a89.05,89.05,0,0,0-9.72,10.27c-1.23,1.47.88,3.6,2.13,2.12Z"/><path class="cls-1" d="M74.35,230.6a208.3,208.3,0,0,1,13.2,28.58,57.51,57.51,0,0,0,7.18,13.35,125.15,125.15,0,0,0,9.59,11.71c3.89,4.26,8,8.32,12.09,12.38a1.5,1.5,0,0,0,2.12-2.12c-7.11-7.05-14.3-14.13-20.27-22.2A55.72,55.72,0,0,1,90.68,259c-1.81-4.79-3.69-9.54-5.8-14.21-2.41-5.35-5.07-10.6-7.94-15.72-.94-1.69-3.53-.17-2.59,1.51Z"/><path class="cls-1" d="M155.73,239.24c-1.15-1.4-3.49-.93-4.95-.35a39.38,39.38,0,0,0-4.83,2.8c-1.87,1.06-4,1.66-5.83,2.7a21.07,21.07,0,0,0-4.58,3.5,51.14,51.14,0,0,0-7.28,9.87,72.48,72.48,0,0,0-5.82,11.45,37.67,37.67,0,0,0-2.77,14.06,1.5,1.5,0,0,0,3,0c-.06-7.65,2.89-14.82,6.62-21.36,3.51-6.15,7.48-13,14.27-15.86a34.25,34.25,0,0,0,5.38-2.7,24.91,24.91,0,0,1,2.31-1.4c.47-.23,2.12-.88,2.36-.59,1.23,1.49,3.34-.64,2.12-2.12Z"/><path class="cls-1" d="M123.68,278.11c4-2.89,8.16-5.62,11.94-8.78,3.54-3,6.33-6.82,9-10.58,1.31-1.88,2.22-3.94,3.39-5.89a22,22,0,0,1,3.67-4.23,21.5,21.5,0,0,0,3.51-4.1c.79-1.32,2-3.74.45-5s-3.62.91-2.12,2.12c-.08-.59-.15-.64-.23-.15a4.31,4.31,0,0,1-.22.6,6.85,6.85,0,0,1-.47.89,11.93,11.93,0,0,1-1.44,1.87c-1.11,1.22-2.36,2.31-3.48,3.52-2.66,2.86-4,6.59-6.3,9.73a47.93,47.93,0,0,1-8.2,9.37c-3.51,2.85-7.32,5.37-11,8-1.55,1.12-.06,3.72,1.51,2.59Z"/><path class="cls-1" d="M146,246.43c.11,0,.22.07.33.12l-.36-.15a3.46,3.46,0,0,1,.77.45l-.3-.23a3.42,3.42,0,0,1,.63.63l-.23-.3a4,4,0,0,1,.45.77l-.15-.36a3.64,3.64,0,0,1,.22.71,1.48,1.48,0,0,0,1.84,1.05,1.55,1.55,0,0,0,.9-.69l.15-.36a1.55,1.55,0,0,0,0-.8,4.86,4.86,0,0,0-1.22-2.33,5,5,0,0,0-2.23-1.4,1.56,1.56,0,0,0-1.16.15,1.52,1.52,0,0,0-.69.9,1.54,1.54,0,0,0,.15,1.15,1.63,1.63,0,0,0,.9.69Z"/><path class="cls-1" d="M128.84,262.14a9.1,9.1,0,0,0,3.5,3.22,6.67,6.67,0,0,0,5.3.37,1.5,1.5,0,1,0-.8-2.89,3.57,3.57,0,0,1-.46.16c-.07,0-.41.15-.47.11s.27,0,0,0l-.3,0a4,4,0,0,1-.49,0l-.24,0c-.22,0,.24.06,0,0s-.32-.06-.48-.11a3.53,3.53,0,0,1-.46-.15s-.28-.12-.11,0l-.14-.07a5.91,5.91,0,0,1-.76-.46.64.64,0,0,1-.19-.13s.22.18,0,0l-.34-.29a8.79,8.79,0,0,1-.66-.7c-.05-.05-.09-.11-.14-.17s.15.21,0,0l-.29-.42a1.5,1.5,0,0,0-2.59,1.52Z"/><path class="cls-1" d="M137,251.81a2.69,2.69,0,0,0-1.92,2.7,2.5,2.5,0,0,0,.75,1.74,3.47,3.47,0,0,0,2.1.85,4.79,4.79,0,0,0,5-3.47,4.9,4.9,0,0,0-.57-3.81,1.54,1.54,0,0,0-1.5-.72,1.45,1.45,0,0,0-.71.3,1.32,1.32,0,0,0-.54.78,3,3,0,0,1-.2.77l.15-.36a3,3,0,0,1-.19.36,1.63,1.63,0,0,1-.11.17c-.08.14.26-.29.07-.08l-.25.26c-.12.12.3-.19.09-.07l-.21.11.36-.15a1.58,1.58,0,0,1-.31.09l.4-.06a1.45,1.45,0,0,1-.36,0l.4.06a11.86,11.86,0,0,0-1.56-.28,2.83,2.83,0,0,0-1.63.42,2.49,2.49,0,0,0-1.14,1.88,2.27,2.27,0,0,0,.62,1.68,3.81,3.81,0,0,0,2.12,1.09,2.57,2.57,0,0,0,2.92-1,1.52,1.52,0,0,0-.12-1.67,1.48,1.48,0,0,0-1.58-.53,3.86,3.86,0,0,1-.89.22l.4,0a4.27,4.27,0,0,1-1,0l.4,0a4.17,4.17,0,0,1-1-.28l.35.15-.15-.07c-.14-.08-.1,0,.12.1l.44,1.06v-.06l-.44,1.06,0,0-1.07.43h0l-.76-.2,0,0-.54-.54v-1.47a1.47,1.47,0,0,0-.15,1.16,1.49,1.49,0,0,0,.69.89,1.45,1.45,0,0,0,1.15.15,1.76,1.76,0,0,0,.9-.69v0a1.44,1.44,0,0,0,0-1.51,1.55,1.55,0,0,0-2.84,1.2,2.43,2.43,0,0,0,1.9,1.43,5.43,5.43,0,0,0,3.24-.12l-1.69-2.2c-.11.2.26-.26.09-.12.07,0,.35-.22.12-.11l.36-.15a1,1,0,0,1-.29.07l.4,0a1.7,1.7,0,0,1-.45,0l.4.06a3.83,3.83,0,0,1-.95-.27l.35.15-.41-.23c.27.14.25.19.11.07s-.06-.06.12.16l-.06-.1.15.36a1.68,1.68,0,0,1-.07-.24l.06.4a1.47,1.47,0,0,1,0-.21l-.05.4.06-.2-.15.36a.57.57,0,0,1,.08-.13c-.17.21-.2.25-.1.14-.33.3-.13.1,0,0l-.36.15a1.68,1.68,0,0,1,.32-.09l-.39.06a1.88,1.88,0,0,1,.53,0l-.4-.06a11.86,11.86,0,0,0,1.56.28,2.83,2.83,0,0,0,1.91-.76,4.21,4.21,0,0,0,1.37-2.5l-2.75.36a3.1,3.1,0,0,1,.26.47l-.15-.35a3.38,3.38,0,0,1,.24.88l-.05-.4a3.54,3.54,0,0,1,0,.92l.06-.39a3.92,3.92,0,0,1-.23.81l.16-.36a5.7,5.7,0,0,1-.3.54c-.13.21.27-.31,0,0l-.2.21-.22.19c.34-.33.12-.1,0,0a3.67,3.67,0,0,1-.52.27l.36-.15a4,4,0,0,1-.84.23l.4-.06a3.1,3.1,0,0,1-.86,0l.4,0a2.61,2.61,0,0,1-.61-.16l.36.15-.21-.11s.34.23.11.07.2.32.11.15l-.07-.15.15.36a1.11,1.11,0,0,1-.07-.26l.05.4a1.82,1.82,0,0,1,0-.33l-.05.4a1.78,1.78,0,0,1,.1-.38l-.15.36.08-.15c.1-.2-.29.3-.09.11.05,0,.22-.19,0,0s0,0,0,0l-.36.15.16-.05a1.52,1.52,0,0,0,1-1.84,1.54,1.54,0,0,0-1.85-1.05Z"/><path class="cls-1" d="M115.13,278.24a27.37,27.37,0,0,1-2.18-7.13,19.06,19.06,0,0,1,.66-7.43,38.79,38.79,0,0,1,4.94-12,38,38,0,0,1,10-9.51c4-2.77,8.51-4.78,13.44-4.66,1.93,0,1.93-3,0-3-8.48-.21-15.78,5-21.7,10.59-5.67,5.33-9,13.07-10.2,20.69-.78,4.88.52,9.46,2.45,13.92.77,1.76,3.36.24,2.6-1.52Z"/><path class="cls-1" d="M151.51,250.67c-1.39,5-3.94,9.26-6.55,13.67l-8.34,14.06a1.5,1.5,0,0,0,2.59,1.52l8.59-14.5c2.66-4.48,5.19-8.9,6.6-14a1.5,1.5,0,0,0-2.89-.79Z"/><path class="cls-1" d="M137,282.13a1.5,1.5,0,0,0,0-3,1.5,1.5,0,0,0,0,3Z"/><path class="cls-1" d="M200.87,192.54a106.22,106.22,0,0,1,14.54-20.65c5.69-6.3,12-12.34,20.09-15.29a44.78,44.78,0,0,1,14-2.57c1.93-.06,1.94-3.06,0-3-8.83.25-17.73,2.68-24.87,8s-13.09,12.13-18.3,19.19A109.31,109.31,0,0,0,198.28,191c-.92,1.7,1.67,3.22,2.59,1.52Z"/><path class="cls-1" d="M243.14,154.63a51,51,0,0,1-7.59,8.8c-3,3-6.07,6-9.13,9a27,27,0,0,1-4.48,3.64c-1.61,1-3.3,1.87-4.92,2.85s-2.84,2.07-4.3,3.08a13.34,13.34,0,0,1-2.15,1.05c-.47,0-.45.08.05.1l-.08-.42c.12-.52,0-1.11.14-1.66.48-1.87-2.41-2.67-2.89-.79-.44,1.72-.59,4.93,1.5,5.7,1.8.65,4-.71,5.41-1.73a54.34,54.34,0,0,1,5.15-3.51,46.34,46.34,0,0,0,5.88-3.68c3.82-3,7.14-6.76,10.6-10.16s6.83-6.68,9.4-10.72c1-1.63-1.55-3.14-2.59-1.52Z"/><path class="cls-1" d="M213.7,173.62c.56.84,1.1,1.69,1.7,2.5a6.08,6.08,0,0,0,2.31,2,5.63,5.63,0,0,0,5.62-.48,1.72,1.72,0,0,0,.69-.9,1.56,1.56,0,0,0-.15-1.16,1.53,1.53,0,0,0-2.06-.53,3.52,3.52,0,0,1-.45.3l-.19.1c-.3.16.2-.06,0,0l-.47.14-.26.06c-.19,0,.31,0,0,0l-.49,0-.27,0c-.29,0,.2.05,0,0l-.47-.12-.26-.08c-.18-.07.32.16,0,0l-.42-.24c-.17-.09.25.23,0,0l-.19-.17c-.15-.15-.29-.3-.43-.47s-.08-.11,0,0l-.19-.26c-.51-.74-1-1.49-1.51-2.24a1.5,1.5,0,0,0-2.59,1.51Z"/><path class="cls-1" d="M229.79,160.08a10.7,10.7,0,0,1,1.34.71c.22.13.42.27.63.42s0,0-.06,0l.14.11.3.26a9.82,9.82,0,0,1,1.05,1.09s.17.21,0,0,0,0,0,0a4,4,0,0,1,.22.34l.09.15c.09.19,0,0,0-.11,0,.13.09.28.11.42l0-.4a1.68,1.68,0,0,1,0,.5l.06-.4c0,.07-.12.4,0,.15s-.05.06-.08.11a1.45,1.45,0,0,0-.15,1.15,1.49,1.49,0,0,0,.69.9,1.54,1.54,0,0,0,2.05-.54,3,3,0,0,0,.26-2.77,6.7,6.7,0,0,0-1.48-2.17,11,11,0,0,0-3.56-2.52,1.73,1.73,0,0,0-1.16-.15,1.54,1.54,0,0,0-.89.69,1.52,1.52,0,0,0-.16,1.16,1.47,1.47,0,0,0,.69.89Z"/><path class="cls-1" d="M222.19,165.62a2.53,2.53,0,0,0-1.31,2.42,2.9,2.9,0,0,0,2,2.5,3.69,3.69,0,0,0,2.87-.3,2.87,2.87,0,0,0,1.88-2.45,1.92,1.92,0,0,0-1.65-1.88,2.11,2.11,0,0,0-1.3.27,6.54,6.54,0,0,0-.74.56l.31-.23a3.25,3.25,0,0,1-.51.3l.35-.15a1.9,1.9,0,0,1-.48.14l.4-.06h-.29l.4.06a1.68,1.68,0,0,1-.32-.09l.36.15a2.35,2.35,0,0,1-.52-.32l.31.24a9.79,9.79,0,0,0-.82-.62,2.74,2.74,0,0,0-1.25-.39,1.9,1.9,0,0,0-1.69,2.63,2.85,2.85,0,0,0,2,1.79c.61.17,1.25.28,1.86.41l-.66-2.51-.12.11.3-.24a1.61,1.61,0,0,1-.28.17l.36-.15a2.37,2.37,0,0,1-.36.09l.39,0h-.38l.4,0a2,2,0,0,1-.42-.11l.36.15a1.35,1.35,0,0,1-.33-.19l.31.23a1.25,1.25,0,0,1-.23-.23l.24.3a1,1,0,0,1-.09-.13l-2,2a5.92,5.92,0,0,0,3.74.61,3.3,3.3,0,0,0,2.45-2.35,1.51,1.51,0,0,0-2.2-1.69l-.44.24a1.51,1.51,0,0,0-.53,2.05,1.53,1.53,0,0,0,2.05.54l.43-.24-2.2-1.7a2.64,2.64,0,0,1-.1.3l.15-.36a1.29,1.29,0,0,1-.19.32l.24-.3a2.27,2.27,0,0,1-.32.3l.31-.23a2.82,2.82,0,0,1-.44.26l.35-.16a2.22,2.22,0,0,1-.61.17l.39-.05a2.89,2.89,0,0,1-.72,0l.39,0a5.8,5.8,0,0,1-1.52-.46l.36.15-.08,0a1.67,1.67,0,0,0-1-.18,1.42,1.42,0,0,0-.86.41,1.56,1.56,0,0,0-.23,1.82,3,3,0,0,0,4.56.61,1.51,1.51,0,0,0-.66-2.51,14.15,14.15,0,0,1-2.14-.5l.36.15a1.41,1.41,0,0,1-.38-.21l.31.23a1.07,1.07,0,0,1-.19-.18l.24.3a1,1,0,0,1-.13-.22l.15.36a2.17,2.17,0,0,1-.07-.24l.06.4a.54.54,0,0,1,0-.18l-.06.4a1,1,0,0,1,0-.18l-.15.36a1.4,1.4,0,0,1,.1-.16l-1.3.75H222l-.4-.05.21.06-.36-.15a2.55,2.55,0,0,1,.5.3l-.31-.23a10.49,10.49,0,0,0,.85.64,2.84,2.84,0,0,0,1.4.4,3.83,3.83,0,0,0,2.46-1.07l-.3.24a1.17,1.17,0,0,1,.3-.19l-.36.15.12,0-.39,0h.12l-.4,0a.5.5,0,0,1,.13,0l-.36-.15.05,0-.3-.23.08.07-.24-.3.06.1-.15-.36,0,.11-.05-.4v.17l.05-.4a.53.53,0,0,1-.05.18l.15-.36a.62.62,0,0,1-.11.17l.24-.3a2.06,2.06,0,0,1-.31.28l.31-.23a4.7,4.7,0,0,1-.78.46l.36-.15a2.57,2.57,0,0,1-.72.2l.4-.05a3.84,3.84,0,0,1-.48,0l.4.05a1.76,1.76,0,0,1-.45-.12l.36.15a1.87,1.87,0,0,1-.39-.22l.3.23a1.58,1.58,0,0,1-.23-.22l.24.3a1.45,1.45,0,0,1-.17-.26l.15.36a1.32,1.32,0,0,1-.08-.33l0,.4a1.41,1.41,0,0,1,0-.29l0,.4a1.16,1.16,0,0,1,.08-.32l-.15.35a1.49,1.49,0,0,1,.14-.24l-.24.31a1.21,1.21,0,0,1,.16-.16l-.31.24a.76.76,0,0,1,.19-.12,1.5,1.5,0,0,0,.54-2.05,1.53,1.53,0,0,0-2.05-.54Z"/><path class="cls-1" d="M222.27,168.15a1.5,1.5,0,0,0,0-3,1.5,1.5,0,0,0,0,3Z"/><path class="cls-1" d="M199,178.85a20.09,20.09,0,0,1,3.73-10.08c2.3-3.18,5.53-5.72,8.44-8.29a78.32,78.32,0,0,1,9.05-7.1,19.19,19.19,0,0,1,5.32-2.65,35.39,35.39,0,0,1,6-.88c4.81-.49,9.63-1.12,14.47-1.15a1.5,1.5,0,0,0,0-3c-4.6,0-9.18.61-13.75,1.07a58.85,58.85,0,0,0-6.61.85,18.74,18.74,0,0,0-5.77,2.45,73.71,73.71,0,0,0-10,7.54c-3.21,2.8-6.65,5.58-9.26,9A23.15,23.15,0,0,0,196,178.85c-.16,1.93,2.84,1.92,3,0Z"/><path class="cls-1" d="M197.35,169.19c3.94-6.52,8.57-12.81,14.69-17.44a35.26,35.26,0,0,1,9.64-5.29,44.59,44.59,0,0,1,12.19-2,119,119,0,0,1,14.87.08c1.93.12,1.92-2.88,0-3a119,119,0,0,0-13.88-.13,52.27,52.27,0,0,0-13,1.82c-7.51,2.34-14,7.28-19.08,13.17a80.21,80.21,0,0,0-8,11.26c-1,1.66,1.59,3.17,2.59,1.52Z"/><path class="cls-1" d="M217.52,186.45a50.13,50.13,0,0,0,28.21-14.54c1.35-1.38-.77-3.51-2.12-2.12a47.51,47.51,0,0,1-26.89,13.77c-1.9.29-1.09,3.18.8,2.89Z"/><path class="cls-1" d="M116.37,296.13c3.12,4.53,4.48,10,6.51,15.09q2.84,7.09,6.3,13.92a194.26,194.26,0,0,0,16.28,26.38A277.85,277.85,0,0,0,188,397.13a89.63,89.63,0,0,0,14,10.4,48.16,48.16,0,0,0,7.93,3.64c2.77,1,5.9,1.25,8.41,2.83,1.65,1,3.15-1.57,1.52-2.59-2.24-1.41-4.84-1.83-7.34-2.56a40.14,40.14,0,0,1-7-2.82,70.78,70.78,0,0,1-12.88-8.82A283.53,283.53,0,0,1,170,375.91c-14.22-14.74-26.93-31.06-36.59-49.17a168,168,0,0,1-7.31-15.55c-2.24-5.52-3.71-11.62-7.12-16.57-1.08-1.58-3.69-.09-2.59,1.51Z"/><path class="cls-1" d="M218.81,414.15a232.82,232.82,0,0,0,48.19,22c1.84.6,2.63-2.3.8-2.89a229.36,229.36,0,0,1-47.47-21.72,1.5,1.5,0,0,0-1.52,2.59Z"/><path class="cls-1" d="M268.7,437a24.59,24.59,0,0,1,17.1-10.77c2-.26,3.6-.46,5.14-1.89s3.07-3.1,4.64-4.61a49.07,49.07,0,0,1,4.66-4.35c.74-.54,1.05-.26,1.49.42s.87,1.6,1.41,2.34c2.06,2.86,6.16,4.61,9,1.62a18,18,0,0,0,3.07-4.93c.8-1.77,1.21-3.61,1.84-5.43.24-.67.66-1.67,1.47-1.84s1.3.85,1.84,1.34a4.09,4.09,0,0,0,4.69.46,15.33,15.33,0,0,0,4.16-3.41,45,45,0,0,0,3.35-3.94c4.88-6.38,8.39-13.85,14.46-19.27,1.44-1.29-.69-3.4-2.12-2.12-5.38,4.81-8.85,11.2-12.9,17.06a40.88,40.88,0,0,1-7,8.13c-.53.44-1.37,1.18-2.12,1.11s-1.36-1.25-1.92-1.67a3.86,3.86,0,0,0-4.53,0c-1.62,1.1-2.19,3-2.68,4.76a22.41,22.41,0,0,1-2.32,5.56c-.93,1.56-2.05,3.48-4.12,2.42-1.61-.82-2.17-2.62-3.13-4a3.76,3.76,0,0,0-4-1.87c-1.89.48-3.39,2.36-4.76,3.65q-2.44,2.31-4.82,4.7a22.42,22.42,0,0,1-2,2,5.57,5.57,0,0,1-2.91.78,27.64,27.64,0,0,0-19.51,12.23c-1.07,1.61,1.53,3.12,2.59,1.51Z"/><path class="cls-1" d="M347.34,382.29a175.89,175.89,0,0,0,15.25-27.73,140.31,140.31,0,0,0,5.7-14.8,34.83,34.83,0,0,0,1.55-7.62c.2-2.7-.24-5.4.08-8.09.37-3,1.28-6,1.18-9.09a39.72,39.72,0,0,0-1.83-9.34,1.51,1.51,0,0,0-2.9.8,37.68,37.68,0,0,1,1.7,8.06c.16,2.75-.51,5.35-.94,8a44.27,44.27,0,0,0-.23,7.55,27.41,27.41,0,0,1-1.17,7.78,119.38,119.38,0,0,1-5.37,14.37q-3,7.06-6.71,13.84c-2.72,5.05-5.7,10-8.9,14.72-1.08,1.6,1.52,3.11,2.59,1.51Z"/><path class="cls-1" d="M369.88,306.78l-3.06-13c-1-4.19-1.84-8.45-3.05-12.59A98.72,98.72,0,0,0,359,269.46l-5.33-12.24-6.13-14.05c-.76-1.76-3.35-.24-2.59,1.52l10.57,24.24c1.7,3.89,3.61,7.75,4.94,11.78s2.11,8.15,3.06,12.22L367,307.58c.44,1.88,3.33,1.08,2.89-.8Z"/><path class="cls-1" d="M307.91,178c5.21,8.38,10.43,16.77,15,25.52,2.26,4.35,4.18,8.84,6.26,13.28s4.76,8.75,7.29,13q4.44,7.46,9.14,14.78c1,1.62,3.64.11,2.59-1.52-5.41-8.44-10.92-17-15.51-25.92-2.23-4.34-4-8.9-6.22-13.26s-4.63-8.71-7.13-13c-2.86-4.86-5.84-9.65-8.82-14.44-1-1.64-3.61-.13-2.59,1.51Z"/><path class="cls-1" d="M245.28,106.43c8.73,7.63,15.3,17.25,22.8,26,4.05,4.73,8.6,8.84,13.05,13.18A183.7,183.7,0,0,1,293.76,160l14.61,17.64c1.24,1.49,3.35-.64,2.13-2.12l-13-15.72c-4.09-4.94-8.09-10-12.55-14.61s-9.16-8.54-13.32-13.26c-3.78-4.28-7.27-8.81-10.86-13.25A114.31,114.31,0,0,0,247.4,104.3c-1.45-1.26-3.58.85-2.12,2.13Z"/><path class="cls-1" d="M179,62.37c9.48,2.35,16.64,9.87,25,14.56,4.85,2.73,9.68,5.41,14.3,8.54s9,6.36,13.33,9.67a162.39,162.39,0,0,1,14.23,12c1.39,1.34,3.52-.78,2.12-2.12-8-7.7-17.11-14.38-26.21-20.74a153.47,153.47,0,0,0-14.37-8.85,134.84,134.84,0,0,1-13.06-8.46c-4.47-3.16-9.15-6.11-14.51-7.45-1.87-.46-2.67,2.43-.8,2.9Z"/><path class="cls-1" d="M73.26,132.46l-.4.39a1.11,1.11,0,0,0-.31.49,1,1,0,0,0-.13.57,1.06,1.06,0,0,0,.13.58,1,1,0,0,0,.31.48l.3.24a1.57,1.57,0,0,0,.76.2l.4,0A1.49,1.49,0,0,0,75,135l.4-.39a1.21,1.21,0,0,0,.31-.49,1.22,1.22,0,0,0,.13-.57,1.27,1.27,0,0,0-.13-.58,1.11,1.11,0,0,0-.31-.48l-.31-.24a1.5,1.5,0,0,0-.75-.2l-.4,0a1.39,1.39,0,0,0-.66.39Z"/><path class="cls-1" d="M75.13,128.24A109,109,0,0,0,62.7,168.46,112.44,112.44,0,0,0,66,210.29a106.78,106.78,0,0,0,8.86,22.18c.92,1.7,3.51.19,2.59-1.52a105.24,105.24,0,0,1-11.84-39,110.18,110.18,0,0,1,3.43-40.81,104,104,0,0,1,8.67-21.43c.93-1.69-1.66-3.21-2.59-1.51Z"/><path class="cls-1" d="M99.28,95.38c-8.4,5.8-17,11.71-23.61,19.59-6.16,7.33-10.23,16-10.7,25.62-.3,6,.36,12.1-1.19,18a1.5,1.5,0,0,0,2.89.8c1.3-4.93,1.17-10,1.21-15.07A41.27,41.27,0,0,1,70,130.13c3.25-8.9,9.84-16.12,17-22.08,4.38-3.63,9.06-6.86,13.73-10.08,1.58-1.09.08-3.7-1.51-2.59Z"/><path class="cls-1" d="M91.11,84.74c-4.94,4.58-9.91,9.14-14.84,13.75-4.42,4.14-8.78,8.51-11.87,13.78A41,41,0,0,0,59.14,129c-.61,6.29.46,12.31,1.66,18.45,1.26,6.43,2.18,13.65-1.88,19.31-1.13,1.58,1.47,3.08,2.59,1.52,3.43-4.79,3.78-10.93,3-16.58-.82-6.19-2.62-12.17-2.62-18.45A39.23,39.23,0,0,1,65.79,116c2.66-5.37,6.72-9.78,11-13.9,5.4-5.16,11-10.17,16.44-15.25,1.42-1.31-.71-3.43-2.13-2.12Z"/><path class="cls-1" d="M49.67,120.11c-10.21,14.16-18,31-20.49,48.39-1.26,8.76-1.08,17.8,1.56,26.3a42.73,42.73,0,0,0,11.49,18.39,33.94,33.94,0,0,0,21.39,9.49c1.93.09,1.93-2.91,0-3C49.94,219,38.56,208,34.15,195.55c-5.69-16.12-1.83-34,4.42-49.33a118.61,118.61,0,0,1,13.69-24.59c1.13-1.57-1.47-3.07-2.59-1.52Z"/><path class="cls-1" d="M39.16,168.72c-4.12,7.58-4.24,16.7-1.49,24.76,2.81,8.22,8.19,15.43,14.36,21.44a73.76,73.76,0,0,0,11.75,9.31c1.63,1,3.14-1.55,1.52-2.59a68.54,68.54,0,0,1-17.87-16.42c-4.79-6.4-8.43-13.95-8.63-22.06a25.53,25.53,0,0,1,3-12.92c.93-1.7-1.66-3.22-2.59-1.52Z"/><path class="cls-1" d="M38.28,171.61c2.39,5.43,1.75,11.54,2,17.31.24,5.33,1.23,10.69,4.71,14.9,1.23,1.49,3.34-.64,2.12-2.12-3.37-4.08-3.8-9.71-3.89-14.78-.11-5.72,0-11.48-2.36-16.82-.78-1.77-3.36-.24-2.59,1.51Z"/><path class="cls-1" d="M40.05,173.23a45.48,45.48,0,0,1,4.35,11.69,55.53,55.53,0,0,1,1,12.21,19.54,19.54,0,0,0,2.55,10.34,18.09,18.09,0,0,0,7.5,6.95c1.72.85,3.24-1.74,1.51-2.59A15.46,15.46,0,0,1,50,205c-1.75-3.43-1.55-7-1.57-10.76a48,48,0,0,0-5.78-22.52c-.91-1.7-3.5-.18-2.59,1.52Z"/><path class="cls-1" d="M128.88,73.88c1.74-2.65,3.35-5.54,5.31-8a2.57,2.57,0,0,1,3.31-.95c1.47.48,2.89,1.08,4.37,1.54,5.73,1.8,12,2.64,17.78.48a1.5,1.5,0,0,0-.4-2.94,7.66,7.66,0,0,1-5-3l-1.69,2.2a18.44,18.44,0,0,0,7.56,1.33c2.69-.11,5.18-1,7.78-1.62a11,11,0,0,1,3.7-.4,19.06,19.06,0,0,1,3.48.87c2.2.64,4.44,1,6.53-.19a1.5,1.5,0,0,0-1.52-2.59c-1.76,1-4-.07-5.75-.57a13.54,13.54,0,0,0-6.81-.12c-2.33.53-4.57,1.43-7,1.6a16.33,16.33,0,0,1-7.21-1.2,1.52,1.52,0,0,0-1.69,2.21A11,11,0,0,0,159.25,67l-.39-3c-6.31,2.37-13.05.77-19.14-1.49a8.45,8.45,0,0,0-4.49-.86A5.6,5.6,0,0,0,132,63.89c-2.1,2.64-3.81,5.66-5.66,8.48-1.07,1.62,1.53,3.12,2.59,1.51Z"/><path class="cls-1" d="M112.37,60.81a17.56,17.56,0,0,1,7.92-11,16.55,16.55,0,0,1,6.7-2.39,11.34,11.34,0,0,1,7.68,1.95,41,41,0,0,0,7.12,3.91A24,24,0,0,0,150,54.84a33.81,33.81,0,0,0,8.53-1.29c2.81-.71,5.68-1.48,8.61-1.2a12.92,12.92,0,0,1,10.93,9.36,1.51,1.51,0,0,0,2.9-.8,16.17,16.17,0,0,0-10-10.74c-6.06-2.23-11.88.65-17.88,1.49a21.51,21.51,0,0,1-9.09-.74c-3.05-.93-5.5-2.69-8.18-4.32a13.81,13.81,0,0,0-8.41-2.18,19.37,19.37,0,0,0-7.57,2.22A20.58,20.58,0,0,0,109.48,60c-.43,1.88,2.46,2.68,2.89.8Z"/><path class="cls-1" d="M117.75,48.24c-6.74-4.61-15-.57-20.12,4.5-3,3-5.69,6.43-8.5,9.66Q84.63,67.57,80,72.64,74.64,78.49,69.1,84.2a1.51,1.51,0,0,0,1.46,2.51A43.15,43.15,0,0,0,81,81.63,60.69,60.69,0,0,0,89.94,74c5.13-5.1,11.77-11.54,19.73-9.67,1.88.44,2.68-2.46.8-2.9-8.12-1.9-15.26,3.24-20.77,8.6-3,2.86-5.76,5.89-9.11,8.29a41,41,0,0,1-10.82,5.52l1.46,2.5q9-9.33,17.64-19.08c2.72-3.09,5.36-6.23,8.06-9.33,2.43-2.79,5-5.55,8.38-7.24s7.67-2.07,10.93.16c1.6,1.09,3.1-1.51,1.51-2.59Z"/><path class="cls-1" d="M99.31,51c-3,1.77-6.88-.36-10-.95a17.47,17.47,0,0,0-9.23.73c-6.11,2.18-11,7-14.34,12.49C62,69.64,60,76.78,57,83.5c-2.82,6.42-7.82,12.49-7,19.89.22,2.09.74,4.14.93,6.23A24.1,24.1,0,0,1,46.43,126c-1.11,1.58,1.49,3.08,2.59,1.51a27.27,27.27,0,0,0,4.69-19.36c-.51-3.7-1.33-7.06-.14-10.73C54.67,94,56.7,91,58.28,87.81,64.09,76.09,66.52,60,79.87,54.12a15.1,15.1,0,0,1,9.89-.86c3.65.91,7.51,2.45,11.07.37A1.5,1.5,0,0,0,99.31,51Z"/><path class="cls-1" d="M49.77,104.88c-.58,1.77-2.22,2.87-3.68,3.87a50.78,50.78,0,0,1-5.7,3.56A23.94,23.94,0,0,1,30,114.83a25.68,25.68,0,0,1-19.25-7.9c-1.12-1.18-2.74.1-2.51,1.46.7,4.2,4.09,7.56,7.3,10.07a29.91,29.91,0,0,0,10.66,5.42,23.9,23.9,0,0,0,11.73.26c4.58-1.1,8.77-3.74,12.9-5.91,1.72-.89.2-3.48-1.51-2.59-3.69,1.94-7.4,4.27-11.44,5.41a20.36,20.36,0,0,1-10.51,0,27,27,0,0,1-9.7-4.73c-2.84-2.18-5.92-5.07-6.54-8.75l-2.51,1.46c9,9.61,24.24,11.45,35.41,4.63,3.21-2,7.37-4.21,8.61-8,.6-1.84-2.29-2.63-2.89-.8Z"/><path class="cls-1" d="M48.09,120.71a1.5,1.5,0,0,0,0-3,1.5,1.5,0,0,0,0,3Z"/><path class="cls-1" d="M47,118.08a30.17,30.17,0,0,1-28.48,9,1.5,1.5,0,0,0-1.15,2.74,25.35,25.35,0,0,0,29.09-.66c1.52-1.15,0-3.76-1.51-2.59a22.47,22.47,0,0,1-26.07.66L17.68,130a33.2,33.2,0,0,0,31.39-9.79c1.3-1.42-.81-3.55-2.12-2.12Z"/><path class="cls-1" d="M119.82,74.31a19,19,0,0,1,7.54-15.93,10,10,0,0,1,9.22-1.59A99.18,99.18,0,0,1,147,61.19c1.75.78,3.27-1.81,1.51-2.59-3.81-1.68-7.68-3.82-11.72-4.89a12.73,12.73,0,0,0-10.89,2.08,22.09,22.09,0,0,0-9,18.52c.06,1.92,3.06,1.93,3,0Z"/><path class="cls-1" d="M55.1,175.63a39.64,39.64,0,0,1,7.3,16.65,1.51,1.51,0,0,0,1.84,1.05,1.52,1.52,0,0,0,1.05-1.84,41.69,41.69,0,0,0-7.6-17.38,1.54,1.54,0,0,0-2-.53,1.51,1.51,0,0,0-.54,2Z"/><path class="cls-1" d="M65.23,225.24c1.48,6.13,3.15,12.3,7.34,17.19C76.41,246.93,81.74,250,85,255c1.06,1.61,3.66.11,2.59-1.51-3.22-4.9-8.19-8.06-12.13-12.3-4.33-4.65-5.9-10.73-7.36-16.75-.45-1.87-3.35-1.08-2.89.8Z"/><path class="cls-1" d="M113,78.13c-1.64-1.5-3.71-.92-5.63-.38a57.73,57.73,0,0,0-6.25,2.17,60.32,60.32,0,0,0-11.6,6.31c-1.57,1.1-.07,3.7,1.52,2.59a59.67,59.67,0,0,1,9.85-5.57,54.25,54.25,0,0,1,5.29-2c.83-.27,1.68-.52,2.53-.76.49-.13,1.72-.65,2.17-.24,1.42,1.31,3.54-.81,2.12-2.12Z"/><path class="cls-1" d="M325.52,411.46l7.24,6a1.51,1.51,0,0,0,2.5-1.46c-.72-3.69.54-7.33,2.26-10.56a95.63,95.63,0,0,1,6.38-9.8c4.47-6.4,9.1-12.7,13.5-19.15,8.7-12.74,16.58-26.33,20.27-41.44a67.74,67.74,0,0,0,1.47-25.48c-.27-1.91-3.16-1.1-2.89.8,2.15,15.27-2.31,30.73-9.15,44.28-7.06,14-16.7,26.48-25.66,39.29-4.64,6.62-10.75,14.23-9.07,22.86l2.51-1.46-7.24-6c-1.48-1.22-3.61.89-2.12,2.12Z"/><path class="cls-1" d="M335.84,413c1.47-7.27,6.38-12.95,11.38-18.16,2.67-2.8,5.42-5.52,8-8.42,2.91-3.31,5.63-6.8,8.24-10.35A400.49,400.49,0,0,0,391.1,333a258.92,258.92,0,0,0,20.37-46.25,181.17,181.17,0,0,0,8.82-49.91,140.29,140.29,0,0,0-7.17-49.76q-1-2.94-2.18-5.82c-.71-1.77-3.61-1-2.89.79a134,134,0,0,1,9.3,49,173.26,173.26,0,0,1-7.27,50,243.92,243.92,0,0,1-19.34,46.32,410.68,410.68,0,0,1-26.89,43,160.32,160.32,0,0,1-16.16,19.67c-5,5.13-10.3,10.41-13.16,17.11a26.19,26.19,0,0,0-1.58,5.05c-.38,1.88,2.51,2.69,2.89.79Z"/><path class="cls-1" d="M411.14,181.8c-4.55-9.29-5-20.08-10.59-28.94s-14.64-15.62-22.8-22.15c-5.18-4.14-10.43-8.17-15.68-12.21A1.51,1.51,0,0,0,360,119a1.54,1.54,0,0,0,.54,2c9,6.89,18,13.74,26.47,21.21a60.84,60.84,0,0,1,10.25,11A46.22,46.22,0,0,1,403.16,167c1.55,5.52,2.85,11.11,5.39,16.28.85,1.74,3.44.22,2.59-1.51Z"/><path class="cls-1" d="M362,118.11A294.21,294.21,0,0,1,333,97.17c-4.44-3.64-8.59-7.9-13.47-11-2.48-1.56-5.16-2.78-7.66-4.3s-4.68-3-6.94-4.64c-5.17-3.71-10.22-7.62-15.86-10.63-1.7-.91-3.22,1.68-1.51,2.59a123.12,123.12,0,0,1,14.08,9.34c2.31,1.68,4.63,3.35,7,4.89s4.89,2.83,7.37,4.19c5.12,2.82,9.28,7,13.75,10.75s9.26,7.43,14,10.93q8.16,6,16.7,11.37c1.63,1,3.14-1.56,1.51-2.59Z"/><path class="cls-1" d="M288.93,66.5c-4.81-2.6-9.56-5.47-14.61-7.59a50.91,50.91,0,0,0-15.72-3.36c-5.68-.46-11.38-.69-17.06-1.11q-8.79-.66-17.54-1.53-9.87-1-19.71-2.27c-1.91-.24-1.89,2.76,0,3q17.09,2.22,34.28,3.57c5.6.44,11.21.77,16.82,1.11,5.35.34,10.74.83,15.83,2.59,5.68,2,10.93,5.33,16.2,8.19,1.69.92,3.21-1.67,1.51-2.6Z"/><path class="cls-1" d="M205.38,50.19c-7.21-.39-14.46-.63-21.66-1.29A69.43,69.43,0,0,1,173,47.12c-3.37-.87-6.67-2-10-3a89.06,89.06,0,0,0-20.55-3.64c-6.84-.46-13.93-1.07-20.75-.15a45.58,45.58,0,0,0-19.93,7.78c-1.58,1.09-.08,3.7,1.51,2.59a43.34,43.34,0,0,1,17.51-7.22c6.62-1.13,13.56-.49,20.23-.09a86.77,86.77,0,0,1,20.5,3.42c3.26,1,6.48,2.1,9.77,3a70.22,70.22,0,0,0,10.28,1.91c7.9.9,15.89,1.08,23.82,1.51,1.93.11,1.92-2.89,0-3Z"/><path class="cls-1" d="M298.11,83.2c14.6,14.55,27.24,30.86,39.35,47.5,12.24,16.81,24.4,33.64,34.32,52a299,299,0,0,1,14.75,31.45c.71,1.77,3.61,1,2.9-.8a305,305,0,0,0-28.77-55c-5.88-8.89-12.2-17.5-18.44-26.13-6.1-8.44-12.31-16.81-18.81-25a307.29,307.29,0,0,0-23.18-26.13,1.5,1.5,0,0,0-2.12,2.12Z"/><path class="cls-1" d="M379.47,338.12l.27-.35a1,1,0,0,0,.17-.55,1.11,1.11,0,0,0,0-.6,1.14,1.14,0,0,0-.27-.51,1.12,1.12,0,0,0-.42-.39l-.36-.15a1.55,1.55,0,0,0-.8,0l-.36.15a1.45,1.45,0,0,0-.53.54l-.27.35a1,1,0,0,0-.17.56,1.08,1.08,0,0,0,0,.59,1.14,1.14,0,0,0,.27.51,1.12,1.12,0,0,0,.42.39l.36.15a1.55,1.55,0,0,0,.8,0l.36-.15a1.45,1.45,0,0,0,.53-.54Z"/><path class="cls-1" d="M380,337.3c1.36-6.58,4.4-12.56,7.09-18.65a115.79,115.79,0,0,0,6.39-18.46,110.26,110.26,0,0,0,2.8-38.34,103,103,0,0,0-4.55-21.38c-.6-1.82-3.5-1-2.89.8,8,24.33,6.23,51.39-3.89,74.83-2.89,6.69-6.36,13.21-7.84,20.4-.39,1.89,2.5,2.69,2.89.8Z"/><path class="cls-1" d="M382.7,341.12q3.06-8.89,6.48-17.64c2.22-5.68,4.67-11.25,6.92-16.92a93.07,93.07,0,0,0,6.44-34.44,103.54,103.54,0,0,0-2-19.94c-.37-1.89-3.27-1.09-2.89.8a96.2,96.2,0,0,1,.68,34.67,87.84,87.84,0,0,1-4.48,16.55c-2.13,5.62-4.61,11.1-6.82,16.68q-3.81,9.64-7.18,19.44c-.63,1.83,2.26,2.62,2.89.8Z"/><path class="cls-1" d="M409.23,289.7c.63-4.47,1.28-8.94,1.58-13.45a89.1,89.1,0,0,0-.21-13.17c-.69-8.78-1.07-17.69-2.37-26.41a46.14,46.14,0,0,0-3.88-13.32c-.84-1.74-3.42-.22-2.59,1.51,3.5,7.29,4,15.52,4.66,23.46l1.05,13.07a107.42,107.42,0,0,1,.47,12.68c-.22,5-.9,9.91-1.6,14.84a1.55,1.55,0,0,0,1.05,1.84,1.51,1.51,0,0,0,1.84-1.05Z"/><path class="cls-1" d="M62.84,225.52C66,236.7,71.2,247.17,77,257.23,83,267.75,89.41,278,95.69,288.4c3.2,5.29,6.39,10.6,9.88,15.71,3.4,5,7.16,9.67,10.73,14.51,6.38,8.64,11.69,18,17.32,27.1,6.11,9.92,12.76,19.67,21.54,27.44,1.44,1.28,3.57-.84,2.12-2.12-15.71-13.9-24.08-33.63-35.93-50.53-3.44-4.9-7.19-9.57-10.71-14.41s-6.82-10.08-10-15.28c-6.27-10.3-12.59-20.58-18.72-31-6.56-11.14-12.66-22.64-16.21-35.13a1.5,1.5,0,0,0-2.89.8Z"/><path class="cls-1" d="M154.42,372.11a122.85,122.85,0,0,0,35.91,36.6,179,179,0,0,0,25.1,13.35c8.78,4,17.62,7.86,26.58,11.41a159.22,159.22,0,0,0,15.57,5.41c3.8,1.07,8.54,1.63,11.51-1.56,1.31-1.41-.8-3.54-2.12-2.12-2.44,2.61-6.65,1.38-9.61.49-4.47-1.34-8.87-2.9-13.22-4.6-8.68-3.37-17.21-7.15-25.71-10.95A195.44,195.44,0,0,1,194,407.53a119,119,0,0,1-37-36.94c-1-1.62-3.63-.12-2.59,1.52Z"/><path class="cls-1" d="M209.81,418.9a86.09,86.09,0,0,0,45,23.78c3.57.66,9.35,2.18,11.58-1.8a1.5,1.5,0,0,0-2.59-1.51c-.71,1.28-2.5,1.19-3.78,1.09a48.52,48.52,0,0,1-5.61-.9A84.3,84.3,0,0,1,243,436.42a83.34,83.34,0,0,1-20.86-10.91,81.07,81.07,0,0,1-10.22-8.73,1.5,1.5,0,0,0-2.12,2.12Z"/><path class="cls-1" d="M266.2,436.94c-7.75,9.36-11.72,20.93-15.71,32.23-4.49,12.74-9,25.5-12.58,38.52a217.12,217.12,0,0,0-7.49,39.21,141.38,141.38,0,0,0,2.23,40.33c3,15.12,6.73,30.13,10.14,45.17.43,1.88,3.32,1.08,2.89-.8-3-13.14-6-26.27-8.92-39.42a161.83,161.83,0,0,1-3.38-20,136.64,136.64,0,0,1-.35-19.72c1.39-26.48,9.65-51.94,18.35-76.78,4.41-12.57,8.29-26.16,16.94-36.6,1.22-1.48-.89-3.61-2.12-2.12Z"/><path class="cls-1" d="M247.1,628.64c-.45-14.7-.75-29.46.58-44.13a185.37,185.37,0,0,1,9-41.42c4.31-13,9.55-25.74,14.4-38.58s9.45-25.72,12-39.12c2.69-14,2-29,8.31-42.1.83-1.73-1.75-3.26-2.59-1.51-5.67,11.81-5.93,25-7.77,37.75-1.95,13.51-6.39,26.65-11.08,39.42-4.8,13-10.14,25.85-14.7,39a201.52,201.52,0,0,0-10,41.15c-2,16.43-1.66,33.06-1.16,49.57.06,1.93,3.06,1.94,3,0Z"/><path class="cls-1" d="M311.06,418.65a67.93,67.93,0,0,0-3.31,10.24,80.31,80.31,0,0,0-1.51,10.73,165.55,165.55,0,0,1-3.43,22.15c-3.56,14.52-6.1,29.26-9.62,43.79a85.94,85.94,0,0,1-3.1,10.3c-1.29,3.43-2.73,6.8-4.25,10.12-2.93,6.41-6.19,12.66-9.35,18.95s-6.32,12.85-9,19.48c-2.65,6.47-4.85,13.24-5.41,20.25-.61,7.82,1.06,15.81,3.25,23.28,2.27,7.77,5.27,15.32,7.76,23,.59,1.83,3.49,1,2.89-.8-4.3-13.32-10.46-26.56-11-40.77-.25-7,1.46-13.82,3.87-20.37a200.08,200.08,0,0,1,8.8-19.74c3.08-6.18,6.29-12.3,9.26-18.54s6-12.7,7.91-19.37c3.94-14.15,6.25-28.76,9.53-43.08.95-4.14,2.08-8.25,2.84-12.43.73-4,1.19-8,1.61-12.07s.83-8.22,1.48-12.31a48.76,48.76,0,0,1,3.37-11.33c.75-1.76-1.83-3.29-2.59-1.51Z"/><path class="cls-1" d="M253,550.49A72.75,72.75,0,0,1,258,564.3c1.08,5.08.37,9.89-.23,15-1.14,9.64,1.28,19,5,27.84,2.15,5.09,4.7,10,7.28,14.87.9,1.71,3.49.2,2.59-1.51-4.53-8.58-9.11-17.35-11.18-26.91a42.89,42.89,0,0,1-.71-14.29c.29-2.49.72-5,.85-7.47a31.51,31.51,0,0,0-.51-7.19c-1-5.46-3.23-10.58-5.43-15.64-.77-1.76-3.35-.24-2.59,1.52Z"/><path class="cls-1" d="M297.77,485.16a168.08,168.08,0,0,1-27.42,31.1c-1.45,1.28.68,3.4,2.12,2.12a171.53,171.53,0,0,0,27.89-31.71c1.1-1.59-1.5-3.1-2.59-1.51Z"/><path class="cls-1" d="M309,432a161.31,161.31,0,0,0,7.07,31.52,18.3,18.3,0,0,1,1.28,7.52,15.65,15.65,0,0,1-2.37,6.37c-2.58,4.3-6.16,8.05-9.36,11.89L293.44,503.9c-1.22,1.47.89,3.61,2.12,2.12l11.08-13.29c3.4-4.07,7.08-8,10.05-12.44,2.77-4.09,4.34-8.65,3.38-13.61a73.13,73.13,0,0,0-2.41-8q-1.2-3.89-2.19-7.82A150.39,150.39,0,0,1,312,432c-.22-1.89-3.22-1.91-3,0Z"/><path class="cls-1" d="M314.65,482a29.81,29.81,0,0,1,3.42,26c-3,8.82-9.38,16.06-12.26,24.95-6.46,19.91-1.3,41.24-4,61.63a179.9,179.9,0,0,1-8.63,34.94c-.63,1.82,2.27,2.61,2.9.79a187,187,0,0,0,8.13-31.6c1.66-10.44,1.49-20.87,1.29-31.4s-.24-21.2,2.55-31.43c2.52-9.25,8.87-16.67,12.32-25.52a32.8,32.8,0,0,0-3.15-29.85c-1.06-1.6-3.66-.1-2.59,1.51Z"/><path class="cls-1" d="M349.75,419.18c-2.58,3.12-2.68,7-3.42,10.78-.79,4.08-3.07,7.34-5.95,10.24a1.5,1.5,0,0,0,2.12,2.12c2.88-2.89,5.41-6.28,6.44-10.29.9-3.47.54-7.83,2.93-10.73,1.21-1.48-.9-3.62-2.12-2.12Z"/><path class="cls-1" d="M339.25,433.94c-1.89,5.73-7.07,9.5-10.16,14.51-2.8,4.52-3.73,10.39-.23,14.8,1.2,1.51,3.31-.62,2.12-2.12-3.26-4.11-.54-9.75,2.17-13.29,3.24-4.26,7.27-7.88,9-13.1.6-1.84-2.29-2.62-2.9-.8Z"/><path class="cls-1" d="M352.75,421l5.27-3.19-2.2-1.69a62,62,0,0,0-2.47,21.5c.47,7.17,2.16,14.18,3.57,21.2,1.47,7.3,2.8,14.63,3.85,22a67.38,67.38,0,0,1,0,21.54c-1.21,7-3.33,13.68-5.17,20.47a156.89,156.89,0,0,0-4.12,21.05c-1.87,14.36-2.52,28.9-6.28,42.95-2,7.6-4.67,15.05-6.13,22.79a58.25,58.25,0,0,0-1.1,11.33c0,2.47.56,6.39-1.9,7.93l2.21.9A41.82,41.82,0,0,0,321.53,602c-3.29-2.43-6.88-4.48-9.91-7.25S306,588.33,306,584.06a1.5,1.5,0,0,0-3,0c0,8.22,6.85,13.6,13,17.81a53.55,53.55,0,0,1,9.11,7.32,39.07,39.07,0,0,1,10.23,21.37,1.52,1.52,0,0,0,2.21.89c2.34-1.47,3.12-4,3.34-6.6.26-3.14,0-6.28.29-9.42.71-7.06,2.83-13.91,4.83-20.68a160.33,160.33,0,0,0,4.93-21c1.11-7.23,1.78-14.5,2.56-21.77a190.46,190.46,0,0,1,3.3-21.78c1.58-7,3.81-13.75,5.49-20.68a70.73,70.73,0,0,0,2.23-21.28,193.62,193.62,0,0,0-3.2-22.09c-1.5-8.22-3.64-16.38-4.66-24.68a60.47,60.47,0,0,1,2-24.52,1.52,1.52,0,0,0-2.2-1.7l-5.28,3.19a1.5,1.5,0,0,0,1.52,2.59Z"/><path class="cls-1" d="M315.72,451.58c2.14-3.06,5.28-5.17,8.27-7.32a38.66,38.66,0,0,0,7.71-6.84,16.59,16.59,0,0,0,3.93-9.14,30.21,30.21,0,0,0-.37-6.08q-.4-3.4-.93-6.78c-.29-1.9-3.18-1.09-2.89.8.33,2.15.63,4.31.88,6.47a26.83,26.83,0,0,1,.31,5.59,14.44,14.44,0,0,1-4.32,8.47c-4.67,4.92-11.23,7.67-15.18,13.32-1.1,1.59,1.5,3.09,2.59,1.51Z"/><path class="cls-1" d="M250.46,440.72c-6.9.85-11.73,6.44-13.38,13-1.71,6.82-.65,14.28,2.09,20.69a35.53,35.53,0,0,0,6.57,10.12l1.82-2.36-1.16-.62c-1.7-.92-3.21,1.67-1.51,2.59l1.16.62a1.51,1.51,0,0,0,1.82-2.35A32.48,32.48,0,0,1,239.28,461c-.1-7.11,3-16.26,11.18-17.27,1.89-.24,1.91-3.24,0-3Z"/><path class="cls-1" d="M336,428.85c14.58-3.54,24.26-16.11,34.08-26.47a401.16,401.16,0,0,1,36.57-33.74c12.88-10.59,26.27-20.54,39.83-30.22q10.14-7.23,20.37-14.29c6.93-4.81,13.81-9.71,20.9-14.28,13.93-9,29.74-16.72,46.75-15.79a46.12,46.12,0,0,1,6.31.8,1.53,1.53,0,0,0,1.84-1.05,8.56,8.56,0,0,0-6.21-10.62c-1.89-.4-2.69,2.49-.8,2.89a5.56,5.56,0,0,1,4.12,6.94l1.85-1c-16.78-3.31-33.51,2.46-47.94,10.75-7.42,4.26-14.44,9.19-21.47,14-6.87,4.77-13.75,9.53-20.59,14.35-13.65,9.62-27.16,19.46-40.24,29.86a438.32,438.32,0,0,0-37.6,33.3c-5.53,5.55-10.69,11.45-16.18,17-5,5.14-10.57,10.07-17.24,12.95a32.16,32.16,0,0,1-5.14,1.68c-1.88.46-1.09,3.35.79,2.9Z"/><path class="cls-1" d="M490.64,307.33q5.6-4.17,11.31-8.18a122.88,122.88,0,0,1,10.85-7.06c7.71-4.27,16.25-5.74,25-5.56,1.93,0,1.93-3,0-3-8.93-.19-17.77,1.31-25.71,5.54a110.65,110.65,0,0,0-11.25,7.21q-5.93,4.14-11.7,8.46c-1.53,1.14,0,3.75,1.51,2.59Z"/><path class="cls-1" d="M412.33,189.23a212.54,212.54,0,0,1,26.75,18.5c8.08,6.57,15.58,13.8,23.3,20.78s15.81,13.73,24.74,19.2c4.68,2.87,9.5,5.48,14.17,8.36q6.48,4,12.58,8.57A163.55,163.55,0,0,1,539,288.1c1.27,1.46,3.38-.67,2.12-2.12a164.52,164.52,0,0,0-22.3-21.3c-8.23-6.5-17.06-11.87-26.1-17.14A160.81,160.81,0,0,1,467,228.61c-7.81-6.93-15.29-14.24-23.29-21a216.79,216.79,0,0,0-29.85-21,1.5,1.5,0,0,0-1.51,2.59Z"/><path class="cls-1" d="M447.87,331.1a1.5,1.5,0,0,0,0-3,1.5,1.5,0,0,0,0,3Z"/><path class="cls-1" d="M182.51,403.7a7.84,7.84,0,0,1-7.89,7.18c-4.49.13-7.85-2.57-11.46-4.84-1.6-1-3.83-2.55-5.82-2-1.78.46-2.76,2.54-3.06,4.21a8.21,8.21,0,0,0,4.06,8.67c1.7.9,3.22-1.69,1.51-2.59a5,5,0,0,1-2.56-3.34,5.18,5.18,0,0,1-.06-2.25c.1-.46.38-1.6.87-1.8s2.09.85,2.63,1.16c1,.58,1.94,1.22,2.89,1.85a28.78,28.78,0,0,0,5.31,3,13.66,13.66,0,0,0,10.7-.18,10.64,10.64,0,0,0,5.88-9c.13-1.93-2.87-1.92-3,0Z"/><path class="cls-1" d="M171.63,418.31c-5.91.86-12.1,1.26-17.39,4.29a26,26,0,0,0-10.15,10.77c-2.31,4.6-3.42,10.13-2.17,15.2a12.15,12.15,0,0,0,11.39,9.27c6.19.37,11.55-3.62,14.91-8.51,1.1-1.59-1.5-3.09-2.59-1.51-2.55,3.7-6.55,6.9-11.22,7a9.25,9.25,0,0,1-9.69-7.47c-1.83-8.53,3.52-17.72,10.73-22,5.09-3,11.24-3.33,17-4.17,1.9-.27,1.1-3.17-.8-2.89Z"/><path class="cls-1" d="M167.3,445.82c-1.37,1.83-3.87,2.53-6,3.14-1.15.34-2.57.87-3.76.4A3.45,3.45,0,0,1,155.7,447c-1.08-3.89,2-10.2,6.46-10,1.8.09,3.8,1.42,3.9,3.21s3.11,1.93,3,0a6.74,6.74,0,0,0-5.37-6,8.16,8.16,0,0,0-8,2.83,12.77,12.77,0,0,0-3.08,9.52,7,7,0,0,0,2.25,4.51,6.11,6.11,0,0,0,5.18,1.26,24,24,0,0,0,5.55-1.73,10.4,10.4,0,0,0,4.32-3.32,1.5,1.5,0,0,0-.54-2.05,1.53,1.53,0,0,0-2,.54Z"/><path class="cls-1" d="M195,412.1a13.06,13.06,0,0,1-6.22,7.45,64.32,64.32,0,0,1-10,4.09,1.54,1.54,0,0,0-1,1.85,1.52,1.52,0,0,0,1.85,1.05c3.78-1.39,7.78-2.58,11.24-4.69a16.07,16.07,0,0,0,7.1-9c.58-1.85-2.32-2.64-2.89-.8Z"/><path class="cls-1" d="M180.3,439.31c1.66-.85,3.72.81,5,1.79a15.14,15.14,0,0,1,3.79,3.95c1.95,3.29.22,7-2.73,9-3.37,2.3-7.74,2.78-11.66,3.48a89.54,89.54,0,0,1-12.74,1.55,34,34,0,0,1-14-2.25c-1.78-.73-2.56,2.17-.79,2.89,9.61,3.93,20.24,2.2,30.13.38,4.59-.84,9.61-1.8,12.91-5.41,3-3.27,3.75-7.85,1.21-11.61a20.56,20.56,0,0,0-5.19-5c-2.17-1.56-4.82-2.62-7.36-1.31-1.72.89-.21,3.48,1.51,2.59Z"/><path class="cls-1" d="M143.16,464.23c5.81,5.68,14.27,7.73,22.2,6.75a44.21,44.21,0,0,0,12.91-3.8A47.58,47.58,0,0,0,188.81,461c3.33-2.71,6-6.35,6.08-10.77.05-1.93-2.95-1.93-3,0-.18,7.06-8.44,11.22-13.93,13.85-6.82,3.28-14.61,5.26-22.14,3.59a21.56,21.56,0,0,1-10.54-5.52c-1.39-1.35-3.51.77-2.12,2.13Z"/><path class="cls-1" d="M182.16,473.35c4.16,2.51,7.05,6.51,9.88,10.35a86.5,86.5,0,0,1,8.06,12.59c4.12,8.27,6,19.29-.16,27.11a15.17,15.17,0,0,1-11.54,6.09,1.5,1.5,0,0,0,0,3c9.87-.11,17.08-8.79,18.27-18.07,1.46-11.36-4.44-21.74-10.85-30.61-3.47-4.8-7-9.93-12.14-13.05a1.5,1.5,0,0,0-1.52,2.59Z"/><path class="cls-1" d="M195.55,458.07c5.18,11.82,15.12,21.09,17.62,34.11A39,39,0,0,1,203,526.54a39.4,39.4,0,0,1-16.22,10.07c-1.83.58-1,3.48.8,2.89a42.47,42.47,0,0,0,26.32-24.27,41.93,41.93,0,0,0,2.77-20.07,46.22,46.22,0,0,0-6.71-19c-3.92-6.54-8.69-12.58-11.77-19.6-.77-1.76-3.36-.24-2.59,1.52Z"/><path class="cls-1" d="M193.48,488.63a10.2,10.2,0,0,1-1.24,9.42,14.58,14.58,0,0,1-8.6,5.59c-6.93,1.8-15,.12-20.14-5a17,17,0,0,1-5-10.23l-2.26,1.3c6.32,3.75,14.59,5.4,21.59,2.6a14,14,0,0,0,7.23-5.93,14.21,14.21,0,0,0,.69-11.39c-1.51-4.53-4.64-8.22-7.7-11.78-1.26-1.47-3.37.66-2.12,2.12,2.94,3.42,6.06,7,7.23,11.48,1,4,.25,8.12-3,10.78-6.27,5.12-16,3.33-22.39-.48a1.51,1.51,0,0,0-2.26,1.3c.83,8.58,7.13,15.42,15.26,17.87,7.82,2.35,18.11,1,23.39-5.79a13.17,13.17,0,0,0,2.2-12.64c-.69-1.78-3.6-1-2.89.8Z"/><path class="cls-1" d="M215.19,485.4a21.72,21.72,0,0,0,14.71-17.61c.62-4.77-.56-9.53-2.28-14-.88-2.27-1.89-4.49-2.9-6.71a36,36,0,0,1-2.62-6.67,6.31,6.31,0,0,1,0-3.5,6.93,6.93,0,0,1,2.31-2.65c1.72-1.53,3-3.91,1.63-6.1-1-1.64-3.6-.13-2.59,1.52.91,1.47-2.19,3.22-3,4.15a7.44,7.44,0,0,0-1.6,5.44c.35,4.22,2.74,8.17,4.43,12,1.83,4.14,3.56,8.53,3.73,13.11a18.13,18.13,0,0,1-3,10.63,18.41,18.41,0,0,1-9.69,7.49c-1.83.59-1,3.49.8,2.89Z"/><path class="cls-1" d="M144.78,364.52c-1.54,8.09,3.22,15.21,7.57,21.56L160,397.23c1.08,1.58,2.08,3.58,3.61,4.78s3.57,1.31,5.31,1.65c4.59.89,9.35,1.4,13.88-.05l-1.46-2.51-1,.87c-1.48,1.25.65,3.37,2.12,2.12l1-.87a1.51,1.51,0,0,0-1.46-2.51c-4.63,1.49-9.44.66-14.09-.31a4.82,4.82,0,0,1-2.9-1.18,31.58,31.58,0,0,1-2.14-3.1L158.68,390c-2.71-4-5.61-7.86-8-12.05-2.16-3.83-3.88-8.2-3-12.67.36-1.89-2.53-2.7-2.89-.8Z"/><path class="cls-1" d="M150.75,385.9c2.26,9.3-6.89,16.11-12.82,21.55a62.37,62.37,0,0,0-14.85,21.11,108.56,108.56,0,0,0-7.49,27.55c-1.52,10-2.41,20.11-3.11,30.2q-1.22,17.43-1.21,34.93a1.5,1.5,0,0,0,3,0,452.27,452.27,0,0,1,3.87-62c2.54-18.25,7.9-36.86,21.91-49.69,3.7-3.39,7.71-6.55,10.55-10.76,2.71-4,4.2-8.91,3-13.7-.46-1.88-3.35-1.09-2.89.79Z"/><path class="cls-1" d="M145.74,465.52c-9.09,13.88-18.18,27.75-26.8,41.92-4.28,7-8.53,14.11-12.41,21.37-3.52,6.58-6.77,13.75-7.25,21.3-.22,3.57,1,6.61,4.25,8.36s6.94,3.09,10.4,4.55a176.94,176.94,0,0,0,22.64,8.12c16.19,4.35,33,3.82,49.54,3.36q12.81-.36,25.61-1,6.47-.32,12.92-.71l3-.19a4.93,4.93,0,0,0,2.28-.45,1.86,1.86,0,0,0-.19-3.39,1.73,1.73,0,0,0-2.34,2c.48,1.87,3.37,1.07,2.89-.8l0-.14-.39,1.46-1.48.06-.44-1.06.44-.77-1,.07-1.49.09-3,.18-6,.34q-5.85.32-11.68.57-11.81.53-23.62.8c-15.12.36-30.24.5-44.94-3.55A172.48,172.48,0,0,1,116,560.67c-3.28-1.37-6.56-2.75-9.79-4.21-1.33-.61-2.8-1.31-3.47-2.69a8.55,8.55,0,0,1-.39-4.65c.78-7,3.87-13.49,7.17-19.58,3.56-6.55,7.37-13,11.23-19.34,8.85-14.61,18.2-28.89,27.56-43.16,1.06-1.62-1.54-3.13-2.59-1.52Z"/><path class="cls-1" d="M226.17,473.56c-1.62,24.11-3.24,48.4-.66,72.5a189.26,189.26,0,0,0,3.25,20.25c.41,1.89,3.3,1.09,2.89-.79-5.15-23.55-5-47.82-3.74-71.77.36-6.73.81-13.46,1.26-20.19.13-1.92-2.87-1.92-3,0Z"/><path class="cls-1" d="M101.6,557.12a52.55,52.55,0,0,0-2.5,4.76A1.67,1.67,0,0,0,99,563a1.47,1.47,0,0,0,.69.89,1.51,1.51,0,0,0,2-.53c.75-1.63,1.59-3.22,2.5-4.77a1.51,1.51,0,0,0-.53-2,1.53,1.53,0,0,0-2.06.54Z"/><path class="cls-1" d="M178.47,585.05c4.09-3.31,8.32-6.44,12.65-9.43a1.54,1.54,0,0,0,.54-2,1.53,1.53,0,0,0-2.06-.54c-4.53,3.14-9,6.43-13.26,9.9a1.51,1.51,0,0,0,0,2.12,1.55,1.55,0,0,0,2.13,0Z"/><path class="cls-1" d="M340,617.55,372,557.83c9.94-18.61,19.86-37.24,29.48-56s18.94-37.72,27.67-56.92,16.79-38.45,24-58.14a594.26,594.26,0,0,0,18.57-59.86c.65-2.58,1.27-5.15,1.88-7.74.44-1.87-2.45-2.68-2.89-.79a579.48,579.48,0,0,1-17.77,60.12c-7,19.78-14.91,39.22-23.45,58.38s-17.73,38.08-27.23,56.81S382.89,531,373,549.53q-15.8,29.61-31.64,59.19L337.44,616c-.91,1.71,1.68,3.22,2.59,1.52Z"/><path class="cls-1" d="M494.9,304.07c15.84,9.06,29.73,21,42.38,34.09,3.59,3.7,7.08,7.5,10.5,11.35,1.29,1.44,3.4-.69,2.12-2.12-12.21-13.74-25.35-26.78-40.35-37.48a154.28,154.28,0,0,0-13.14-8.43,1.5,1.5,0,0,0-1.51,2.59Z"/><path class="cls-1" d="M543.77,378.12c-8.62,13.49-17.53,27.58-19.9,43.72a52.46,52.46,0,0,0-.47,11.81c.28,3.47,1.73,7.8,0,11.08-.83,1.57-1.86,2.81-1.86,4.69a8.94,8.94,0,0,0,1.7,4.89,37.47,37.47,0,0,0,7.37,7.72,50.92,50.92,0,0,0,9.94,6.5,53.05,53.05,0,0,0,5.66,2.4c1.3.46,3.44.86,3.72,2.45.33,1.9,3.23,1.1,2.89-.79-.56-3.18-4.24-3.94-6.78-4.91a48,48,0,0,1-17.37-11.55,20.93,20.93,0,0,1-3.39-4.23,4.11,4.11,0,0,1,.09-4.65c2-3.18,1.93-6.46,1.44-10.08a52.78,52.78,0,0,1-.39-11.51,67.87,67.87,0,0,1,6.52-22.84c3.78-8.1,8.61-15.66,13.42-23.18,1-1.63-1.55-3.14-2.59-1.52Z"/><path class="cls-1" d="M524,436.2c-8.17,10.8-9.89,24.44-10.13,37.59-.06,3.32,0,6.63,0,9.95a12.14,12.14,0,0,1-.41,4.41,9.91,9.91,0,0,1-3.29,4.35c-5.12,3.75-11,6.24-16.19,9.89a30.31,30.31,0,0,0-7,6.55,63.1,63.1,0,0,0-5.53,9.12,63.51,63.51,0,0,0-7,29.31c0,3.14.76,6.16-1.38,8.81a7.75,7.75,0,0,1-3.27,2.41,8.65,8.65,0,0,1-4.76.07c-3.56-.61-7.13-1.25-10.68-1.94-16-3.14-32-7.52-46.41-15.33-1.25-.67-2.92.74-2.05,2.06a35.16,35.16,0,0,0,5.28,6.51,9.74,9.74,0,0,0,3.91,2.51,2.06,2.06,0,0,0,2.75-1.93c0-1.42-1.24-2.71-2.17-3.64a35.69,35.69,0,0,0-7.72-5.51c-1.25-.71-2.9.76-2.05,2.06a277.37,277.37,0,0,1,22,40.74c2.7,6.19,6.57,14.22,3.47,20.94-2.34,5.08-8.33,6.92-13.21,8.57-8.46,2.85-17,5.58-25.41,8.44-1.82.61-1,3.51.8,2.89,8.1-2.74,16.25-5.33,24.34-8.08,5.36-1.82,11.36-3.58,14.89-8.35,4.55-6.16,2.41-14.43-.18-20.92-3-7.49-6.48-14.8-10.2-21.95q-6.37-12.24-13.93-23.8L406.37,544a33.7,33.7,0,0,1,7,4.89,9.13,9.13,0,0,1,1.32,1.56c.07.11.1.24.18.35-.26-.39,0-.11,0,0s0-.23,0-.26a1.18,1.18,0,0,1,.54-.8.65.65,0,0,1,.49-.12c-.07-.05-.2,0-.28-.08-.29-.14.22.11-.07,0a8.41,8.41,0,0,1-1.82-1.25,30.07,30.07,0,0,1-5.23-6.28L406.37,544c13.08,7.07,27.36,11.45,41.85,14.55,3.67.79,7.35,1.5,11,2.16q2.79.51,5.59,1a11.66,11.66,0,0,0,4.85.07,10.7,10.7,0,0,0,6.73-5.32c1.6-3,.94-6.18.95-9.46A60.66,60.66,0,0,1,481,526.5a63,63,0,0,1,4.5-9.73,38.12,38.12,0,0,1,6-8.5c4.62-4.59,10.7-7.23,16.2-10.57,2.95-1.79,5.82-3.62,7.62-6.66s1.51-6.42,1.5-9.87c0-13.24.06-27.39,6.91-39.19a42.13,42.13,0,0,1,2.85-4.26c1.17-1.54-1.43-3-2.59-1.52Z"/><path class="cls-1" d="M194.12,287.49A37.45,37.45,0,0,0,181,310.36c-.18,1.15,1,2.54,2.21,1.7a8.65,8.65,0,0,1,2.54-1.27l-1.9-1.44-.82,6.43c-.21,1.67,2.64,2.06,2.95.4-.3,1.6-.47,0-.78.44a4.55,4.55,0,0,0-.24,1.06c-.56,1.88,2.24,2.59,2.89.8a.53.53,0,0,1-.5.41q-.17-.18.06.24c-.07.44,0,1.05,0,1.5,0,1.24-.11,2.47-.21,3.69a67.84,67.84,0,0,1-1,7.38,73.46,73.46,0,0,1-4.25,14.13c-.58,1.4,1.55,2.51,2.51,1.46l3.16-3.49-2.51-1.46a8.21,8.21,0,0,0,4.63,9.17l-.75-1.29c-.21,2.18-.07,4.92,2.2,6a3.33,3.33,0,0,0,4.74-1.75l-3-.4a8.68,8.68,0,0,0,4.33,6.68c2.78,1.7,6.17,1.93,9.35,2.13a1.51,1.51,0,0,0,1.29-2.25l-2.5-4.59v1.51a8.18,8.18,0,0,0-4.18-11.31l-.4,2.95c4-.43,4.78-6.41.9-7.69l.9.69a48,48,0,0,1-6-19.37c-.52-6.11,0-12.8,3.75-17.91,2-2.72,4.73-4.82,7.25-7l8.63-7.46c2.5-2.16,5-4.38,8.14-5.61a27,27,0,0,1,9.67-1.61c7.2-.1,14.78,1.59,21.5-1.85l-1.82-.23a5.33,5.33,0,0,0,8.33-.59l-2.05.54,5.29,3a1.51,1.51,0,0,0,2.05-.54l1.19-2h-2.59c1.91,3.26,6,2.36,9,1.64a24,24,0,0,1,13.59.8,1.49,1.49,0,0,0,1.46-.39,21,21,0,0,1,4.56-3.26,4.56,4.56,0,0,1,2.2-.79c1,.08,2.11.36,3.14.53a1.52,1.52,0,0,0,1.69-2.2c-3.8-6.76-11-10.75-17.47-14.55-6.9-4-15-8-23.21-6.86-1.76.26-3.77,1.34-3.58,3.4a2.57,2.57,0,0,0,3.74,2.17c1.56-.88.45-3-1.15-2.74l-4.3.77a1.5,1.5,0,0,0-1,1.84l.79,2.41,1.45-1.9q-6.4.58-12.82,1.23l-3.14.32a3.33,3.33,0,0,0-2.34.79,2.77,2.77,0,0,0,.17,3.91l1.06-2.56a43.56,43.56,0,0,0-15.71,1.31,1.52,1.52,0,0,0-.9,2.2l1.62,3.21,1.3-2.26a28.87,28.87,0,0,1-12.93-3.6,1.51,1.51,0,0,0-2,2.05l1.41,3.28,2.35-1.81a3.49,3.49,0,0,0-4.89.06c-1.72,1.57-1.39,4.07-1,6.11l.39-1.45a79.4,79.4,0,0,1-18.52,15.19,1.5,1.5,0,0,0,1.52,2.59,82.46,82.46,0,0,0,13.12-9.64,73.12,73.12,0,0,0,5.71-5.7,2,2,0,0,0,.7-1.58c0-.62-.27-1.21-.29-1.83,0-.35.35-2.42,1.09-1.63,1.26,1.33,3-.36,2.36-1.82l-1.41-3.28-2.06,2.05a32.3,32.3,0,0,0,14.45,4,1.52,1.52,0,0,0,1.3-2.26l-1.63-3.2-.9,2.2a41,41,0,0,1,14.92-1.2,1.51,1.51,0,0,0,1.06-2.56c.14.13-.44.41-.44.47l1.21-.12,2.18-.22,4.35-.43c2.9-.29,5.81-.56,8.71-.83a1.52,1.52,0,0,0,1.45-1.9l-.8-2.4-1.05,1.84,4.29-.77-1.15-2.74c.66.27.9.29.73.08-.06.28,0,.31.23.1.29,0,.62-.18.91-.22a15.57,15.57,0,0,1,3.05-.11,24.77,24.77,0,0,1,6,1,51.08,51.08,0,0,1,11.17,5.06c6.31,3.63,13.66,7.47,17.36,14l1.69-2.2c-1.26-.22-2.53-.44-3.8-.64a5.59,5.59,0,0,0-3.28.92,23.35,23.35,0,0,0-5.73,4l1.46-.38a26.75,26.75,0,0,0-12.13-1.35c-1.77.22-3.45.73-5.2,1-1.14.19-2.82.43-3.5-.73a1.51,1.51,0,0,0-2.59,0l-1.19,2,2.05-.54-5.29-3a1.53,1.53,0,0,0-2.05.54,2.32,2.32,0,0,1-3.62,0,1.53,1.53,0,0,0-1.82-.24c-6.65,3.41-14.79,1.1-21.93,1.5a26.75,26.75,0,0,0-10.44,2.49c-3.53,1.76-6.46,4.62-9.42,7.17-3.16,2.73-6.33,5.45-9.47,8.2a25.48,25.48,0,0,0-6.91,8.56c-3,6.59-2.85,14.18-1.57,21.16a51.05,51.05,0,0,0,3.84,12.06q.7,1.51,1.5,3a3.56,3.56,0,0,0,.82,1.2c.19.14.48.17.64.32.31.3.36,1.68-.23,1.74a1.51,1.51,0,0,0-.4,2.95,5.19,5.19,0,0,1,2.92,5.15c-.1,1.16-1,2.1-.53,3.26a46.42,46.42,0,0,0,2.5,4.59l1.3-2.26c-3.76-.24-10.28-.83-10.68-5.81a1.5,1.5,0,0,0-2.94-.4,1.58,1.58,0,0,1-.85-.45c-.56-.75-.28-2.15-.2-3a1.42,1.42,0,0,0-.74-1.3,5.24,5.24,0,0,1-3.24-5.78c.27-1.37-1.44-2.65-2.51-1.46l-3.16,3.48,2.5,1.46a74.66,74.66,0,0,0,5.07-19.31c.2-1.61.35-3.22.44-4.83a12,12,0,0,0-.16-4.48c-.83-2.44-4.3-2.91-5.24-.32l2.89.8c.48-1.63.59-3.74-1.19-4.61a2.49,2.49,0,0,0-3.58,1.52l3,.39.82-6.43a1.51,1.51,0,0,0-1.9-1.45,11,11,0,0,0-3.26,1.57l2.21,1.69a35,35,0,0,1,12.38-21.55c1.49-1.23-.64-3.34-2.12-2.12Z"/><path class="cls-1" d="M165.51,372.52l2.23,2a1.52,1.52,0,0,0,2.12,0l1.66-1.67-2.51-.66a9,9,0,0,0,3.45,5,1.42,1.42,0,0,0,1.51,0l2.35-1.63-1.15.15c2.53.5,5.05,1,7.59,1.5a2.67,2.67,0,0,0,1.63-.06,2.29,2.29,0,0,1,1-.23,2,2,0,0,1,1.7,1.1c.87,1.6,3,.42,2.74-1.15l-.15.5.13-.07c.06,0,.34-.08.43-.09a3.34,3.34,0,0,1,1.16.32,5.37,5.37,0,0,0,3,.46,4.12,4.12,0,0,0,2.32-1.69c.78-.91,1.68-.34,2.6.16,1.6.88,3,1.61,4.93,1.25a3.07,3.07,0,0,0,2.75-3.19l-2.79.76c2.48,4.41,8.24,3.33,12.41,4.35a19,19,0,0,1,12,8.94,1.52,1.52,0,0,0,2.74-.36,1.14,1.14,0,0,1,.67-.92h-1.51a63.5,63.5,0,0,0,12.73,7.64,66,66,0,0,0,6.69,2.59c1,.33,2.4,1.05,3.46.55a30,30,0,0,0,3.44-2.31l-1.82-.24,2.26,2.29a1.53,1.53,0,0,0,2.12,0c1.92-1.81,4.58-2.29,7.13-2.43a23.15,23.15,0,0,1,3.63,0c.29,0,2.25.37,2.18.86-.15,1,.65,2.29,1.85,1.85a8.18,8.18,0,0,0,5.11-6.56c.57-3.6-.84-7-2-10.32-1.64-4.84-3.53-11.79,1-15.68l-1.46.38a17.47,17.47,0,0,1,11.32,6.48,1.57,1.57,0,0,0,2,.53l12.59-5.44,6.29-2.73a25.66,25.66,0,0,0,5.23-2.77,12.81,12.81,0,0,0,2.8-17.32l-1.69,2.21A7.31,7.31,0,0,0,323.49,335l-1.06,2.56c3.48.13,4.66-3.56,4.65-6.42a29.44,29.44,0,0,0-.91-5.75l-1.51-7.58-2.5,1.46a10.19,10.19,0,0,0,6.92,2.36c.88,0,1.83-.94,1.45-1.9l-2.78-7-1.84,1.84,4.15,1.35a1.51,1.51,0,0,0,1.9-1.44l-1.58-13.58-.44,1.06a7.69,7.69,0,0,0,.45-10.71c-.95-1.06-3.09.06-2.51,1.46a5.84,5.84,0,0,0,5.31,3.77,1.51,1.51,0,0,0,1.5-1.5,23.31,23.31,0,0,0-3-9.35l-2,2.06a7.94,7.94,0,0,0,4.66,1.14,1.53,1.53,0,0,0,1.5-1.5,18.55,18.55,0,0,0-3.13-11.5l-2.05,2.05,3.09,2.14c1.19.82,2.4-.53,2.21-1.69a77.93,77.93,0,0,1-.79-19.83l-2.8.75a2,2,0,0,0,2.95.74,4,4,0,0,0,1.64-3.25,49.21,49.21,0,0,0-.61-5.79q-.34-3-.75-5.94t-.84-5.77a8.72,8.72,0,0,1-.24-1.43,3.4,3.4,0,0,1,.24-1,18.12,18.12,0,0,0,.56-2.53,18.87,18.87,0,0,0-1.38-10.25,1.53,1.53,0,0,0-2.06-.54,1.55,1.55,0,0,0-.53,2.06,15.56,15.56,0,0,1,1.1,7.69c-.14,1.33-.69,2.51-.94,3.8a6.76,6.76,0,0,0,.24,2.23c.11.72.23,1.44.34,2.16q.66,4.37,1.18,8.74c.17,1.45.33,2.9.47,4.35a10.73,10.73,0,0,1,.22,2.17,2.4,2.4,0,0,0-.07.43l-.15.23c-.32.39.09.5,1.22.34-.68-1.48-2.68-.57-2.79.76a81.4,81.4,0,0,0,.89,20.62l2.21-1.69-3.1-2.14c-1.22-.85-2.87.83-2,2.05a15.91,15.91,0,0,1,2.72,10l1.5-1.5a5.14,5.14,0,0,1-3.15-.73,1.51,1.51,0,0,0-2.05,2.05,19.66,19.66,0,0,1,2.63,7.83l1.5-1.5a2.71,2.71,0,0,1-2.41-1.57l-2.51,1.46a4.54,4.54,0,0,1,1,3.88,4.41,4.41,0,0,1-.84,2c-.54.69-1.07,1-1,1.93.07,2.17.51,4.39.76,6.55l.79,6.79,1.9-1.45-4.16-1.35c-1-.33-2.26.78-1.84,1.84l2.77,7,1.45-1.9a7,7,0,0,1-4.8-1.48,1.52,1.52,0,0,0-2.51,1.46c.74,3.71,1.65,7.43,2.22,11.17.19,1.23.39,4.86-1.56,4.78a1.52,1.52,0,0,0-1.06,2.56,4.51,4.51,0,0,1,.22,5.49,4.58,4.58,0,0,1-5.42,1.24c-1.19-.48-2.42,1.19-1.7,2.21a9.79,9.79,0,0,1,1.57,7.84,9.91,9.91,0,0,1-5.44,6.71c-3.44,1.82-7.16,3.2-10.73,4.74l-11.23,4.86,2.05.54a20.55,20.55,0,0,0-8.22-6.46,15.65,15.65,0,0,0-5.09-1.42c-1.46-.07-2.73,1.82-3.39,3-3.3,5.71-.69,12.84,1.25,18.53,1.1,3.22,2.4,9.12-1.92,10.71l1.84,1.85c.62-4.13-4.16-4.74-7.18-4.69-3.86.06-7.85.61-10.77,3.36h2.12l-2.26-2.29a1.53,1.53,0,0,0-1.82-.23l-3.44,2.31,1.16-.15a62.7,62.7,0,0,1-21-10.63,1.48,1.48,0,0,0-1.51,0,4,4,0,0,0-2,2.71l2.74-.36a22.21,22.21,0,0,0-11.59-9.66,27.31,27.31,0,0,0-7.12-1.33c-2-.18-4.56-.36-5.65-2.3-.69-1.22-3-.77-2.8.76,0,.28.26.1,0,.19a2.92,2.92,0,0,1-.93.1,5.41,5.41,0,0,1-2.19-.94c-1.85-1-4.14-1.74-5.87-.09-.33.32-.56.85-.94,1.11s-.8.1-1.25-.05a6.9,6.9,0,0,0-2.79-.61c-1.9.16-3.33,1.47-3,3.44l2.74-1.16a5,5,0,0,0-6.81-1.95l1.16-.15-6.17-1.22a6.77,6.77,0,0,0-2.69-.37,10.25,10.25,0,0,0-2.71,1.78H174a5.77,5.77,0,0,1-2.07-3.17,1.51,1.51,0,0,0-2.5-.66l-1.66,1.67h2.12l-2.23-2c-1.44-1.27-3.57.84-2.12,2.12Z"/></svg>