<svg xmlns="http://www.w3.org/2000/svg" width="404" height="208" viewBox="0 0 404 208"><defs><style>.cls-1,.cls-2{fill:none;stroke:#9bc4a1;stroke-miterlimit:10;stroke-width:4px;}.cls-2{stroke-linecap:round;}.cls-3{font-size:49.12px;fill:#9bc4a1;font-family:RoundedMplus1c-Regular, "Rounded Mplus 1c";letter-spacing:-0.06em;}.cls-4{letter-spacing:-0.09em;}</style></defs><g id="Layer_8" data-name="Layer 8"><path class="cls-1" d="M54.81,23c0-9.86,8.34-17.85,18.64-17.85s18.64,8,18.64,17.85"/><path class="cls-1" d="M54.81,131.65c0,10.94,8.34,19.81,18.64,19.81s18.64-8.87,18.64-19.81"/><path class="cls-1" d="M7,23C7,13.13,15.38,5.14,25.68,5.14s18.64,8,18.64,17.85"/><path class="cls-1" d="M7,45.32c0,11.76,8.35,21.29,18.64,21.29s18.64-9.53,18.64-21.29"/><line class="cls-1" x1="92.09" y1="21.95" x2="92.09" y2="132.1"/><line class="cls-1" x1="54.81" y1="21.95" x2="54.81" y2="132.1"/><path class="cls-2" d="M291.29,131.42c0,10.94,8.35,19.8,18.64,19.8s18.64-8.86,18.64-19.8"/><line class="cls-2" x1="291.29" y1="5.34" x2="291.29" y2="131.87"/><path class="cls-2" d="M149.32,23c0-9.86,8.35-17.85,18.64-17.85s18.64,8,18.64,17.85"/><line class="cls-2" x1="167.19" y1="5.58" x2="167.19" y2="151.22"/><path class="cls-2" d="M197,23c0-9.86,8.34-17.85,18.64-17.85s18.64,8,18.64,17.85"/><line class="cls-2" x1="196.96" y1="23.2" x2="196.96" y2="151.22"/><path class="cls-1" d="M102.44,23c0-9.86,8.34-17.85,18.64-17.85s18.64,8,18.64,17.85"/><path class="cls-1" d="M102.44,46.81c0,10.93,8.35,19.8,18.64,19.8s18.64-8.87,18.64-19.8"/><line class="cls-2" x1="139.72" y1="21.95" x2="139.72" y2="47.26"/><line class="cls-2" x1="102.44" y1="21.95" x2="102.44" y2="151.22"/><line class="cls-1" x1="44.32" y1="22.99" x2="44.32" y2="45.77"/><line class="cls-2" x1="7.04" y1="22.99" x2="7.04" y2="151.22"/><line class="cls-2" x1="103.74" y1="54.46" x2="139.46" y2="151.22"/><line class="cls-2" x1="197.51" y1="47.02" x2="218.35" y2="47.02"/><path class="cls-1" d="M243.86,23.38c0-9.86,8.34-17.85,18.64-17.85s18.64,8,18.64,17.85"/><path class="cls-1" d="M243.86,132.05c0,10.93,8.34,19.8,18.64,19.8s18.64-8.87,18.64-19.8"/><line class="cls-1" x1="281.14" y1="22.34" x2="281.14" y2="132.49"/><line class="cls-1" x1="243.86" y1="22.34" x2="243.86" y2="132.49"/><line class="cls-2" x1="337.44" y1="5.34" x2="337.44" y2="149.73"/><path class="cls-1" d="M348.53,22.15c0-9.86,8.34-17.85,18.64-17.85s18.64,8,18.64,17.85"/><path class="cls-1" d="M348.53,130.82c0,10.93,8.34,19.8,18.64,19.8s18.64-8.87,18.64-19.8"/><line class="cls-1" x1="385.81" y1="21.11" x2="385.81" y2="131.26"/><line class="cls-1" x1="348.53" y1="21.11" x2="348.53" y2="131.26"/><text class="cls-3" transform="translate(212.08 201.24)">e<tspan class="cls-4" x="22.99" y="0">k</tspan><tspan x="44.45" y="0">samen</tspan></text></g></svg>