<svg id="Layer_1" data-name="Layer 1" xmlns="http://www.w3.org/2000/svg" width="135" height="393" viewBox="0 0 135 393"><defs><style>.cls-1,.cls-2{fill:none;stroke-miterlimit:10;}.cls-1{stroke:#000;stroke-width:2px;}.cls-2{stroke:#95c69a;}</style></defs><path class="cls-1" d="M120.43,20.67a5.59,5.59,0,0,1,0,11.18"/><line class="cls-1" x1="121.51" y1="31.85" x2="46.02" y2="31.56"/><line class="cls-1" x1="121.55" y1="20.67" x2="46.02" y2="20.38"/><line class="cls-1" x1="88.5" y1="20.38" x2="88.5" y2="31.56"/><line class="cls-1" x1="88.5" y1="115.39" x2="88.5" y2="126.57"/><path class="cls-1" d="M83.33,41.15a5.59,5.59,0,1,1,0,11.17"/><line class="cls-1" x1="83.29" y1="52.32" x2="46.02" y2="52.32"/><line class="cls-1" x1="83.33" y1="41.15" x2="46.02" y2="41.15"/><path class="cls-1" d="M83.33,70.21a5.59,5.59,0,0,1,0,11.18"/><line class="cls-1" x1="83.29" y1="81.39" x2="46.02" y2="81.39"/><path class="cls-1" d="M83.33,81.39a5.59,5.59,0,1,1,0,11.17"/><line class="cls-1" x1="83.29" y1="92.56" x2="46.02" y2="92.56"/><path class="cls-1" d="M83.33,100.39a5.59,5.59,0,0,1,0,11.18"/><path class="cls-1" d="M64.33,100.39a5.59,5.59,0,0,1,0,11.18"/><path class="cls-1" d="M54.27,100.39a5.6,5.6,0,1,0-.05,11.18"/><line class="cls-1" x1="83.29" y1="111.57" x2="46.02" y2="111.57"/><line class="cls-1" x1="64.46" y1="100.39" x2="53.84" y2="100.39"/><line class="cls-1" x1="83.33" y1="70.21" x2="46.02" y2="70.21"/><line class="cls-1" x1="90.73" y1="61.46" x2="46.02" y2="61.46"/><line class="cls-1" x1="90.73" y1="137.75" x2="46.02" y2="137.75"/><path class="cls-1" d="M52.68,131.9a5.59,5.59,0,0,1,0-11.18"/><line class="cls-1" x1="125.94" y1="120.42" x2="52.73" y2="120.72"/><path class="cls-1" d="M83.17,166.64a5.59,5.59,0,0,1,0,11.18"/><line class="cls-1" x1="83.12" y1="177.82" x2="45.86" y2="177.82"/><line class="cls-1" x1="83.17" y1="166.64" x2="45.86" y2="166.64"/><path class="cls-1" d="M83.17,147.64a5.59,5.59,0,0,1,0,11.18"/><path class="cls-1" d="M55.2,147.63c-3.84,0-6.94,2.5-6.94,5.59s3.1,5.58,6.94,5.58"/><line class="cls-1" x1="83.12" y1="158.82" x2="54.4" y2="158.82"/><line class="cls-1" x1="83.17" y1="147.64" x2="54.96" y2="147.64"/><path class="cls-2" d="M28.5,134.09a4.25,4.25,0,0,0-8.49,0"/><path class="cls-2" d="M11.51,378.1c0,2.71,1.91,4.9,4.25,4.9S20,380.81,20,378.1"/><path class="cls-2" d="M28.5,294.1c0,2.71,1.91,4.9,4.25,4.9S37,296.81,37,294.1"/><line class="cls-2" x1="20.01" y1="133.5" x2="20.01" y2="378.1"/><line class="cls-2" x1="28.5" y1="133.5" x2="28.5" y2="294.5"/><line class="cls-2" x1="37" y1="15" x2="37" y2="294.5"/><line class="cls-2" x1="11.5" y1="73" x2="11.5" y2="378.19"/></svg>