<svg id="Layer_1" data-name="Layer 1" xmlns="http://www.w3.org/2000/svg" width="352" height="94" viewBox="0 0 352 94"><defs><style>.cls-1{font-size:19.31px;font-family:RoundedMplus1c-Regular, "Rounded Mplus 1c";letter-spacing:-0.04em;}.cls-2,.cls-3{fill:none;stroke-miterlimit:10;}.cls-2{stroke:#000;stroke-linecap:round;stroke-width:2px;}.cls-3{stroke:#95c69a;}</style></defs><text class="cls-1" transform="translate(149.6 19.61) scale(1.08 1)">Grundlæggende</text><line class="cls-2" x1="9.77" y1="34.55" x2="9.77" y2="90.09"/><path class="cls-2" d="M17.05,63.2a7.05,7.05,0,1,1,14.1,0"/><line class="cls-2" x1="31.15" y1="63.58" x2="31.15" y2="90.09"/><line class="cls-2" x1="17.05" y1="63.58" x2="17.05" y2="90.09"/><path class="cls-2" d="M37.24,63.2a7.06,7.06,0,1,1,14.11,0"/><path class="cls-2" d="M37.24,82.13c0,4.37,3.13,7.93,7,8s7.07-3.52,7.09-7.9"/><line class="cls-2" x1="51.35" y1="34.55" x2="51.35" y2="82.51"/><line class="cls-2" x1="37.24" y1="63.58" x2="37.24" y2="82.51"/><path class="cls-2" d="M116.75,63.2a7.06,7.06,0,1,1,14.11,0"/><path class="cls-2" d="M116.75,82.13c0,4.37,3.13,7.93,7,8s7.07-3.52,7.09-7.9"/><line class="cls-2" x1="130.86" y1="34.55" x2="130.86" y2="83.44"/><line class="cls-2" x1="116.75" y1="63.58" x2="116.75" y2="82.51"/><path class="cls-2" d="M77.62,63.2a7.06,7.06,0,1,1,14.11,0"/><path class="cls-2" d="M77.62,82.13c0,4.37,3.13,7.93,7,8s7.06-3.52,7.08-7.9"/><line class="cls-2" x1="91.73" y1="63.58" x2="91.73" y2="82.51"/><line class="cls-2" x1="77.62" y1="63.58" x2="77.62" y2="82.51"/><path class="cls-2" d="M57.51,63.2a7.06,7.06,0,1,1,14.11,0"/><line class="cls-2" x1="71.62" y1="63.58" x2="71.62" y2="90.09"/><line class="cls-2" x1="57.51" y1="34.55" x2="57.51" y2="90.11"/><path class="cls-2" d="M97.9,83.39a7.06,7.06,0,0,0,14.1,0"/><line class="cls-2" x1="97.89" y1="34.55" x2="97.89" y2="83.77"/><path class="cls-3" d="M152.12,32.76a2.92,2.92,0,0,0,0,5.78"/><path class="cls-3" d="M287,44.32a2.9,2.9,0,0,0,0-5.78"/><path class="cls-3" d="M344.7,32.76c2.37,0,4.3-1.29,4.3-2.89S347.07,27,344.7,27"/><line class="cls-3" x1="151.49" y1="38.54" x2="287.02" y2="38.54"/><line class="cls-3" x1="151.49" y1="32.76" x2="345.18" y2="32.76"/><line class="cls-3" x1="2.25" y1="26.98" x2="345.18" y2="26.98"/><line class="cls-3" x1="69.46" y1="44.34" x2="287.08" y2="44.34"/></svg>