<svg xmlns="http://www.w3.org/2000/svg" width="925" height="96" viewBox="0 0 925 96"><defs><style>.cls-1,.cls-2{fill:none;stroke:#9bc4a1;stroke-linecap:round;stroke-miterlimit:10;}.cls-1{stroke-width:2px;}.cls-2{stroke-width:3px;}</style></defs><g id="Layer_3" data-name="Layer 3"><path class="cls-1" d="M788.74,56.76c-3.81,0-6.89-1.93-6.89-4.31s3.08-4.31,6.89-4.31"/><line class="cls-1" x1="609" y1="39.51" x2="1241.89" y2="39.51"/><line class="cls-1" x1="788.74" y1="48.13" x2="1365.89" y2="48.13"/><line class="cls-1" x1="788.74" y1="56.76" x2="1365.89" y2="56.76"/><path class="cls-2" d="M415,19.52c5.89,0,10.66,6.18,10.66,13.81S420.87,47.14,415,47.14"/><line class="cls-2" x1="312.16" y1="19.51" x2="414.98" y2="19.51"/><line class="cls-2" x1="-265" y1="19.51" x2="312.16" y2="19.51"/><line class="cls-2" x1="312.16" y1="47.13" x2="414.98" y2="47.13"/><line class="cls-2" x1="-265" y1="47.13" x2="312.16" y2="47.13"/><line class="cls-2" x1="312.16" y1="74.75" x2="569.72" y2="74.76"/><line class="cls-2" x1="-265" y1="74.75" x2="312.16" y2="74.75"/></g></svg>