<svg xmlns="http://www.w3.org/2000/svg" width="917" height="84" viewBox="0 0 917 84"><defs><style>.cls-1{fill:none;stroke:#9bc4a1;stroke-linecap:round;stroke-miterlimit:10;stroke-width:2px;}</style></defs><g id="Layer_3" data-name="Layer 3"><path class="cls-1" d="M353.74,25.76A4.54,4.54,0,0,1,349,21.45a4.54,4.54,0,0,1,4.74-4.31"/><path class="cls-1" d="M661.72,8.52a4.31,4.31,0,0,1,0,8.62"/><path class="cls-1" d="M785.72,25.76a4.31,4.31,0,0,1,0,8.62"/><path class="cls-1" d="M279.74,56c-7,0-12.74-4.84-12.74-10.81s5.7-10.81,12.74-10.81"/><line class="cls-1" x1="558.89" y1="8.51" x2="661.72" y2="8.51"/><line class="cls-1" x1="-74" y1="8.51" x2="558.89" y2="8.51"/><line class="cls-1" x1="354" y1="17.13" x2="662" y2="17.13"/><line class="cls-1" x1="682.89" y1="25.76" x2="785.72" y2="25.76"/><line class="cls-1" x1="354" y1="25.76" x2="682.89" y2="25.76"/><line class="cls-1" x1="635.01" y1="34.37" x2="785.73" y2="34.37"/><line class="cls-1" x1="280" y1="34.38" x2="634.89" y2="34.38"/><line class="cls-1" x1="280" y1="56" x2="928" y2="56"/></g></svg>