<svg xmlns="http://www.w3.org/2000/svg" width="421" height="204" viewBox="0 0 421 204"><defs><style>.cls-1,.cls-2{fill:none;stroke-linecap:round;stroke-miterlimit:10;}.cls-1{stroke:#a0c59f;stroke-width:4px;}.cls-2{stroke:#000;stroke-width:2px;}.cls-3{font-size:27px;font-family:RoundedMplus1c-Regular, "Rounded Mplus 1c";letter-spacing:-0.04em;}</style></defs><g id="Layer_2" data-name="Layer 2"><path class="cls-1" d="M401.47,192.91a12.52,12.52,0,1,0,0-25"/><path class="cls-1" d="M53.17,143C45.34,143,39,148.57,39,155.43s6.34,12.44,14.17,12.44"/><path class="cls-1" d="M53.17,116c-25.9,0-46.89,17.21-46.89,38.43s21,38.44,46.89,38.44"/><line class="cls-1" x1="53" y1="192.91" x2="401.47" y2="192.91"/><line class="cls-1" x1="53" y1="167.87" x2="401.47" y2="167.87"/><line class="cls-1" x1="53" y1="143" x2="401" y2="143"/><path class="cls-2" d="M354.31,12c0-5-3.64-9-8.15-9S338,7,338,12"/><path class="cls-2" d="M354.32,49c0,5.21-3.66,9.44-8.17,9.43S338,54.16,338,49"/><line class="cls-2" x1="354.67" y1="68.65" x2="354.67" y2="129"/><line class="cls-2" x1="338.01" y1="12" x2="338.01" y2="129"/><line class="cls-2" x1="354.32" y1="12" x2="354.32" y2="49.07"/><path class="cls-2" d="M386.58,11.3a8.36,8.36,0,0,0-16.72,0"/><path class="cls-2" d="M386.59,47.41c0,5.25-3.75,9.5-8.37,9.49"/><line class="cls-2" x1="369.86" y1="11" x2="369.86" y2="128"/><line class="cls-2" x1="386.59" y1="11" x2="386.59" y2="47.52"/><path class="cls-2" d="M386.88,128.8c0,5.11-3.81,9.24-8.5,9.24s-8.5-4.15-8.49-9.26"/><path class="cls-2" d="M386.94,65.92c0-5-3.74-9-8.36-9"/><line class="cls-2" x1="386.94" y1="128" x2="386.94" y2="65.81"/><path class="cls-2" d="M278.15,128.16c0,5.43,3.77,9.84,8.41,9.84s8.42-4.41,8.42-9.84"/><path class="cls-2" d="M338.05,128.5c0,5.25,3.73,9.5,8.34,9.5s8.33-4.25,8.33-9.5"/><line class="cls-2" x1="278" y1="3" x2="278.15" y2="128.16"/><line class="cls-2" x1="300.52" y1="3" x2="294.98" y2="128.16"/><path class="cls-2" d="M323,128.16c0,5.43-3.79,9.84-8.46,9.84s-8.45-4.41-8.45-9.84"/><line class="cls-2" x1="323" y1="3" x2="323" y2="128.15"/><line class="cls-2" x1="300.51" y1="3" x2="306.08" y2="128.16"/><text class="cls-3" transform="translate(61.92 133.41)">Grundlæggende</text></g></svg>