<svg id="Layer_1" data-name="Layer 1" xmlns="http://www.w3.org/2000/svg" width="369" height="115" viewBox="0 0 369 115"><defs><style>.cls-1{font-size:18.82px;font-family:RoundedMplus1c-Regular, "Rounded Mplus 1c";letter-spacing:-0.04em;}.cls-2,.cls-3{fill:none;stroke-miterlimit:10;}.cls-2{stroke:#000;stroke-linecap:round;stroke-width:2px;}.cls-3{stroke:#95c69a;}</style></defs><text class="cls-1" transform="translate(98 20.32) scale(1.08 1)">Grundlæggende</text><line class="cls-2" x1="327.16" y1="106" x2="344.56" y2="22"/><line class="cls-2" x1="344.56" y1="106" x2="326.33" y2="22"/><path class="cls-2" d="M321.36,95.68c0,5.26-3.89,9.51-8.68,9.51S304,100.94,304,95.68"/><line class="cls-2" x1="304" y1="95.68" x2="304" y2="22"/><line class="cls-2" x1="321.36" y1="95.68" x2="321.36" y2="22"/><path class="cls-3" d="M256.54,20.29c-2.44,0-4.42-1.47-4.42-3.28s2-3.29,4.42-3.29"/><path class="cls-3" d="M359.2,7.15c2.65,0,4.8,1.47,4.8,3.29s-2.15,3.28-4.8,3.28"/><path class="cls-3" d="M308.64,20.29c3,0,5.36,1.47,5.36,3.29s-2.4,3.28-5.36,3.28"/><line class="cls-3" x1="256.27" y1="13.72" x2="359.75" y2="13.72"/><line class="cls-3" x1="256.5" y1="20.29" x2="309.34" y2="20.29"/><line class="cls-3" x1="44.5" y1="26.86" x2="309.07" y2="26.86"/><line class="cls-3" x1="308.82" y1="7.14" x2="359.28" y2="7.14"/></svg>